%TF.GenerationSoftware,KiCad,Pcbnew,10.0.5*%
%TF.CreationDate,2026-08-12T23:07:31+09:00*%
%TF.ProjectId,upd78214-arduino-mega-hat,75706437-3832-4313-942d-61726475696e,rev?*%
%TF.SameCoordinates,Original*%
%TF.FileFunction,Soldermask,Bot*%
%TF.FilePolarity,Negative*%
%FSLAX46Y46*%
G04 Gerber Fmt 4.6, Leading zero omitted, Abs format (unit mm)*
G04 Created by KiCad (PCBNEW 10.0.5) date 2026-08-12 23:07:31*
%MOMM*%
%LPD*%
G01*
G04 APERTURE LIST*
%ADD10R,1.700000X1.700000*%
%ADD11O,1.700000X1.700000*%
%ADD12C,3.200000*%
%ADD13C,1.500000*%
G04 APERTURE END LIST*
D10*
%TO.C,J7*%
X193980000Y-92380000D03*
D11*
X196520000Y-92380000D03*
X193980000Y-89840000D03*
X196520000Y-89840000D03*
X193980000Y-87300000D03*
X196520000Y-87300000D03*
X193980000Y-84760000D03*
X196520000Y-84760000D03*
X193980000Y-82220000D03*
X196520000Y-82220000D03*
X193980000Y-79680000D03*
X196520000Y-79680000D03*
X193980000Y-77140000D03*
X196520000Y-77140000D03*
X193980000Y-74600000D03*
X196520000Y-74600000D03*
X193980000Y-72060000D03*
X196520000Y-72060000D03*
X193980000Y-69520000D03*
X196520000Y-69520000D03*
X193980000Y-66980000D03*
X196520000Y-66980000D03*
X193980000Y-64440000D03*
X196520000Y-64440000D03*
X193980000Y-61900000D03*
X196520000Y-61900000D03*
X193980000Y-59360000D03*
X196520000Y-59360000D03*
X193980000Y-56820000D03*
X196520000Y-56820000D03*
X193980000Y-54280000D03*
X196520000Y-54280000D03*
X193980000Y-51740000D03*
X196520000Y-51740000D03*
X193980000Y-49200000D03*
X196520000Y-49200000D03*
%TD*%
D10*
%TO.C,J1*%
X127940000Y-97460000D03*
D11*
X130480000Y-97460000D03*
X133020000Y-97460000D03*
X135560000Y-97460000D03*
X138100000Y-97460000D03*
X140640000Y-97460000D03*
X143180000Y-97460000D03*
X145720000Y-97460000D03*
%TD*%
D10*
%TO.C,J3*%
X150800000Y-97460000D03*
D11*
X153340000Y-97460000D03*
X155880000Y-97460000D03*
X158420000Y-97460000D03*
X160960000Y-97460000D03*
X163500000Y-97460000D03*
X166040000Y-97460000D03*
X168580000Y-97460000D03*
%TD*%
D10*
%TO.C,J5*%
X173660000Y-97460000D03*
D11*
X176200000Y-97460000D03*
X178740000Y-97460000D03*
X181280000Y-97460000D03*
X183820000Y-97460000D03*
X186360000Y-97460000D03*
X188900000Y-97460000D03*
X191440000Y-97460000D03*
%TD*%
D10*
%TO.C,J2*%
X118796000Y-49200000D03*
D11*
X121336000Y-49200000D03*
X123876000Y-49200000D03*
X126416000Y-49200000D03*
X128956000Y-49200000D03*
X131496000Y-49200000D03*
X134036000Y-49200000D03*
X136576000Y-49200000D03*
X139116000Y-49200000D03*
X141656000Y-49200000D03*
%TD*%
D10*
%TO.C,J4*%
X145720000Y-49200000D03*
D11*
X148260000Y-49200000D03*
X150800000Y-49200000D03*
X153340000Y-49200000D03*
X155880000Y-49200000D03*
X158420000Y-49200000D03*
X160960000Y-49200000D03*
X163500000Y-49200000D03*
%TD*%
D10*
%TO.C,J6*%
X168580000Y-49200000D03*
D11*
X171120000Y-49200000D03*
X173660000Y-49200000D03*
X176200000Y-49200000D03*
X178740000Y-49200000D03*
X181280000Y-49200000D03*
X183820000Y-49200000D03*
X186360000Y-49200000D03*
%TD*%
D12*
%TO.C,MH6*%
X196520000Y-97460000D03*
%TD*%
%TO.C,MH1*%
X115240000Y-49200000D03*
%TD*%
%TO.C,MH2*%
X113970000Y-97460000D03*
%TD*%
%TO.C,MH3*%
X166040000Y-64440000D03*
%TD*%
%TO.C,MH4*%
X166040000Y-92380000D03*
%TD*%
D13*
%TO.C,Y1*%
X123776000Y-86284000D03*
X118896000Y-86284000D03*
%TD*%
D12*
%TO.C,MH5*%
X190170000Y-49200000D03*
%TD*%
M02*
