%TF.GenerationSoftware,KiCad,Pcbnew,10.0.5*%
%TF.CreationDate,2026-08-12T23:07:31+09:00*%
%TF.ProjectId,upd78214-arduino-mega-hat,75706437-3832-4313-942d-61726475696e,rev?*%
%TF.SameCoordinates,Original*%
%TF.FileFunction,Soldermask,Top*%
%TF.FilePolarity,Negative*%
%FSLAX46Y46*%
G04 Gerber Fmt 4.6, Leading zero omitted, Abs format (unit mm)*
G04 Created by KiCad (PCBNEW 10.0.5) date 2026-08-12 23:07:31*
%MOMM*%
%LPD*%
G01*
G04 APERTURE LIST*
G04 Aperture macros list*
%AMRoundRect*
0 Rectangle with rounded corners*
0 $1 Rounding radius*
0 $2 $3 $4 $5 $6 $7 $8 $9 X,Y pos of 4 corners*
0 Add a 4 corners polygon primitive as box body*
4,1,4,$2,$3,$4,$5,$6,$7,$8,$9,$2,$3,0*
0 Add four circle primitives for the rounded corners*
1,1,$1+$1,$2,$3*
1,1,$1+$1,$4,$5*
1,1,$1+$1,$6,$7*
1,1,$1+$1,$8,$9*
0 Add four rect primitives between the rounded corners*
20,1,$1+$1,$2,$3,$4,$5,0*
20,1,$1+$1,$4,$5,$6,$7,0*
20,1,$1+$1,$6,$7,$8,$9,0*
20,1,$1+$1,$8,$9,$2,$3,0*%
%AMFreePoly0*
4,1,23,0.500000,-0.750000,0.000000,-0.750000,0.000000,-0.745722,-0.065263,-0.745722,-0.191342,-0.711940,-0.304381,-0.646677,-0.396677,-0.554381,-0.461940,-0.441342,-0.495722,-0.315263,-0.495722,-0.250000,-0.500000,-0.250000,-0.500000,0.250000,-0.495722,0.250000,-0.495722,0.315263,-0.461940,0.441342,-0.396677,0.554381,-0.304381,0.646677,-0.191342,0.711940,-0.065263,0.745722,0.000000,0.745722,
0.000000,0.750000,0.500000,0.750000,0.500000,-0.750000,0.500000,-0.750000,$1*%
%AMFreePoly1*
4,1,23,0.000000,0.745722,0.065263,0.745722,0.191342,0.711940,0.304381,0.646677,0.396677,0.554381,0.461940,0.441342,0.495722,0.315263,0.495722,0.250000,0.500000,0.250000,0.500000,-0.250000,0.495722,-0.250000,0.495722,-0.315263,0.461940,-0.441342,0.396677,-0.554381,0.304381,-0.646677,0.191342,-0.711940,0.065263,-0.745722,0.000000,-0.745722,0.000000,-0.750000,-0.500000,-0.750000,
-0.500000,0.750000,0.000000,0.750000,0.000000,0.745722,0.000000,0.745722,$1*%
G04 Aperture macros list end*
%ADD10R,1.700000X1.700000*%
%ADD11O,1.700000X1.700000*%
%ADD12RoundRect,0.250000X0.337500X0.475000X-0.337500X0.475000X-0.337500X-0.475000X0.337500X-0.475000X0*%
%ADD13RoundRect,0.250000X-0.337500X-0.475000X0.337500X-0.475000X0.337500X0.475000X-0.337500X0.475000X0*%
%ADD14C,3.200000*%
%ADD15RoundRect,0.137500X-0.327037X-0.521491X0.521491X0.327037X0.327037X0.521491X-0.521491X-0.327037X0*%
%ADD16RoundRect,0.137500X0.327037X-0.521491X0.521491X-0.327037X-0.327037X0.521491X-0.521491X0.327037X0*%
%ADD17FreePoly0,270.000000*%
%ADD18FreePoly1,270.000000*%
%ADD19C,1.500000*%
G04 APERTURE END LIST*
%TO.C,JP2*%
G36*
X160210000Y-52748000D02*
G01*
X161710000Y-52748000D01*
X161710000Y-53048000D01*
X160210000Y-53048000D01*
X160210000Y-52748000D01*
G37*
%TO.C,JP1*%
G36*
X162750000Y-52748000D02*
G01*
X164250000Y-52748000D01*
X164250000Y-53048000D01*
X162750000Y-53048000D01*
X162750000Y-52748000D01*
G37*
%TD*%
D10*
%TO.C,J7*%
X193980000Y-92380000D03*
D11*
X196520000Y-92380000D03*
X193980000Y-89840000D03*
X196520000Y-89840000D03*
X193980000Y-87300000D03*
X196520000Y-87300000D03*
X193980000Y-84760000D03*
X196520000Y-84760000D03*
X193980000Y-82220000D03*
X196520000Y-82220000D03*
X193980000Y-79680000D03*
X196520000Y-79680000D03*
X193980000Y-77140000D03*
X196520000Y-77140000D03*
X193980000Y-74600000D03*
X196520000Y-74600000D03*
X193980000Y-72060000D03*
X196520000Y-72060000D03*
X193980000Y-69520000D03*
X196520000Y-69520000D03*
X193980000Y-66980000D03*
X196520000Y-66980000D03*
X193980000Y-64440000D03*
X196520000Y-64440000D03*
X193980000Y-61900000D03*
X196520000Y-61900000D03*
X193980000Y-59360000D03*
X196520000Y-59360000D03*
X193980000Y-56820000D03*
X196520000Y-56820000D03*
X193980000Y-54280000D03*
X196520000Y-54280000D03*
X193980000Y-51740000D03*
X196520000Y-51740000D03*
X193980000Y-49200000D03*
X196520000Y-49200000D03*
%TD*%
D10*
%TO.C,J1*%
X127940000Y-97460000D03*
D11*
X130480000Y-97460000D03*
X133020000Y-97460000D03*
X135560000Y-97460000D03*
X138100000Y-97460000D03*
X140640000Y-97460000D03*
X143180000Y-97460000D03*
X145720000Y-97460000D03*
%TD*%
D10*
%TO.C,J3*%
X150800000Y-97460000D03*
D11*
X153340000Y-97460000D03*
X155880000Y-97460000D03*
X158420000Y-97460000D03*
X160960000Y-97460000D03*
X163500000Y-97460000D03*
X166040000Y-97460000D03*
X168580000Y-97460000D03*
%TD*%
D10*
%TO.C,J5*%
X173660000Y-97460000D03*
D11*
X176200000Y-97460000D03*
X178740000Y-97460000D03*
X181280000Y-97460000D03*
X183820000Y-97460000D03*
X186360000Y-97460000D03*
X188900000Y-97460000D03*
X191440000Y-97460000D03*
%TD*%
D10*
%TO.C,J2*%
X118796000Y-49200000D03*
D11*
X121336000Y-49200000D03*
X123876000Y-49200000D03*
X126416000Y-49200000D03*
X128956000Y-49200000D03*
X131496000Y-49200000D03*
X134036000Y-49200000D03*
X136576000Y-49200000D03*
X139116000Y-49200000D03*
X141656000Y-49200000D03*
%TD*%
D10*
%TO.C,J4*%
X145720000Y-49200000D03*
D11*
X148260000Y-49200000D03*
X150800000Y-49200000D03*
X153340000Y-49200000D03*
X155880000Y-49200000D03*
X158420000Y-49200000D03*
X160960000Y-49200000D03*
X163500000Y-49200000D03*
%TD*%
D10*
%TO.C,J6*%
X168580000Y-49200000D03*
D11*
X171120000Y-49200000D03*
X173660000Y-49200000D03*
X176200000Y-49200000D03*
X178740000Y-49200000D03*
X181280000Y-49200000D03*
X183820000Y-49200000D03*
X186360000Y-49200000D03*
%TD*%
D12*
%TO.C,C2*%
X119347000Y-91364000D03*
X117272000Y-91364000D03*
%TD*%
D13*
%TO.C,C1*%
X123325000Y-91364000D03*
X125400000Y-91364000D03*
%TD*%
D14*
%TO.C,MH6*%
X196520000Y-97460000D03*
%TD*%
%TO.C,MH1*%
X115240000Y-49200000D03*
%TD*%
D15*
%TO.C,U1*%
X124429761Y-72853470D03*
X124995446Y-73419155D03*
X125561131Y-73984841D03*
X126126817Y-74550526D03*
X126692502Y-75116212D03*
X127258188Y-75681897D03*
X127823873Y-76247583D03*
X128389559Y-76813268D03*
X128955244Y-77378953D03*
X129520929Y-77944639D03*
X130086615Y-78510324D03*
X130652300Y-79076010D03*
X131217986Y-79641695D03*
X131783671Y-80207381D03*
X132349357Y-80773066D03*
X132915042Y-81338751D03*
D16*
X135266172Y-81338751D03*
X135831857Y-80773066D03*
X136397543Y-80207381D03*
X136963228Y-79641695D03*
X137528914Y-79076010D03*
X138094599Y-78510324D03*
X138660285Y-77944639D03*
X139225970Y-77378953D03*
X139791655Y-76813268D03*
X140357341Y-76247583D03*
X140923026Y-75681897D03*
X141488712Y-75116212D03*
X142054397Y-74550526D03*
X142620083Y-73984841D03*
X143185768Y-73419155D03*
X143751453Y-72853470D03*
D15*
X143751453Y-70502340D03*
X143185768Y-69936655D03*
X142620083Y-69370969D03*
X142054397Y-68805284D03*
X141488712Y-68239598D03*
X140923026Y-67673913D03*
X140357341Y-67108227D03*
X139791655Y-66542542D03*
X139225970Y-65976857D03*
X138660285Y-65411171D03*
X138094599Y-64845486D03*
X137528914Y-64279800D03*
X136963228Y-63714115D03*
X136397543Y-63148429D03*
X135831857Y-62582744D03*
X135266172Y-62017059D03*
D16*
X132915042Y-62017059D03*
X132349357Y-62582744D03*
X131783671Y-63148429D03*
X131217986Y-63714115D03*
X130652300Y-64279800D03*
X130086615Y-64845486D03*
X129520929Y-65411171D03*
X128955244Y-65976857D03*
X128389559Y-66542542D03*
X127823873Y-67108227D03*
X127258188Y-67673913D03*
X126692502Y-68239598D03*
X126126817Y-68805284D03*
X125561131Y-69370969D03*
X124995446Y-69936655D03*
X124429761Y-70502340D03*
%TD*%
D17*
%TO.C,JP2*%
X160960000Y-52248000D03*
D18*
X160960000Y-53548000D03*
%TD*%
D14*
%TO.C,MH2*%
X113970000Y-97460000D03*
%TD*%
%TO.C,MH3*%
X166040000Y-64440000D03*
%TD*%
%TO.C,MH4*%
X166040000Y-92380000D03*
%TD*%
D19*
%TO.C,Y1*%
X123776000Y-86284000D03*
X118896000Y-86284000D03*
%TD*%
D14*
%TO.C,MH5*%
X190170000Y-49200000D03*
%TD*%
D17*
%TO.C,JP1*%
X163500000Y-52248000D03*
D18*
X163500000Y-53548000D03*
%TD*%
M02*
