%TF.GenerationSoftware,KiCad,Pcbnew,10.0.5*%
%TF.CreationDate,2026-08-12T23:07:31+09:00*%
%TF.ProjectId,upd78214-arduino-mega-hat,75706437-3832-4313-942d-61726475696e,rev?*%
%TF.SameCoordinates,Original*%
%TF.FileFunction,Legend,Top*%
%TF.FilePolarity,Positive*%
%FSLAX46Y46*%
G04 Gerber Fmt 4.6, Leading zero omitted, Abs format (unit mm)*
G04 Created by KiCad (PCBNEW 10.0.5) date 2026-08-12 23:07:31*
%MOMM*%
%LPD*%
G01*
G04 APERTURE LIST*
G04 Aperture macros list*
%AMRoundRect*
0 Rectangle with rounded corners*
0 $1 Rounding radius*
0 $2 $3 $4 $5 $6 $7 $8 $9 X,Y pos of 4 corners*
0 Add a 4 corners polygon primitive as box body*
4,1,4,$2,$3,$4,$5,$6,$7,$8,$9,$2,$3,0*
0 Add four circle primitives for the rounded corners*
1,1,$1+$1,$2,$3*
1,1,$1+$1,$4,$5*
1,1,$1+$1,$6,$7*
1,1,$1+$1,$8,$9*
0 Add four rect primitives between the rounded corners*
20,1,$1+$1,$2,$3,$4,$5,0*
20,1,$1+$1,$4,$5,$6,$7,0*
20,1,$1+$1,$6,$7,$8,$9,0*
20,1,$1+$1,$8,$9,$2,$3,0*%
%AMFreePoly0*
4,1,23,0.500000,-0.750000,0.000000,-0.750000,0.000000,-0.745722,-0.065263,-0.745722,-0.191342,-0.711940,-0.304381,-0.646677,-0.396677,-0.554381,-0.461940,-0.441342,-0.495722,-0.315263,-0.495722,-0.250000,-0.500000,-0.250000,-0.500000,0.250000,-0.495722,0.250000,-0.495722,0.315263,-0.461940,0.441342,-0.396677,0.554381,-0.304381,0.646677,-0.191342,0.711940,-0.065263,0.745722,0.000000,0.745722,
0.000000,0.750000,0.500000,0.750000,0.500000,-0.750000,0.500000,-0.750000,$1*%
%AMFreePoly1*
4,1,23,0.000000,0.745722,0.065263,0.745722,0.191342,0.711940,0.304381,0.646677,0.396677,0.554381,0.461940,0.441342,0.495722,0.315263,0.495722,0.250000,0.500000,0.250000,0.500000,-0.250000,0.495722,-0.250000,0.495722,-0.315263,0.461940,-0.441342,0.396677,-0.554381,0.304381,-0.646677,0.191342,-0.711940,0.065263,-0.745722,0.000000,-0.745722,0.000000,-0.750000,-0.500000,-0.750000,
-0.500000,0.750000,0.000000,0.750000,0.000000,0.745722,0.000000,0.745722,$1*%
G04 Aperture macros list end*
%ADD10C,0.150000*%
%ADD11C,0.120000*%
%ADD12R,1.700000X1.700000*%
%ADD13O,1.700000X1.700000*%
%ADD14RoundRect,0.250000X0.337500X0.475000X-0.337500X0.475000X-0.337500X-0.475000X0.337500X-0.475000X0*%
%ADD15RoundRect,0.250000X-0.337500X-0.475000X0.337500X-0.475000X0.337500X0.475000X-0.337500X0.475000X0*%
%ADD16C,3.200000*%
%ADD17RoundRect,0.137500X-0.327037X-0.521491X0.521491X0.327037X0.327037X0.521491X-0.521491X-0.327037X0*%
%ADD18RoundRect,0.137500X0.327037X-0.521491X0.521491X-0.327037X-0.327037X0.521491X-0.521491X0.327037X0*%
%ADD19FreePoly0,270.000000*%
%ADD20FreePoly1,270.000000*%
%ADD21C,1.500000*%
G04 APERTURE END LIST*
D10*
X194996000Y-86284000D02*
X187884000Y-86284000D01*
X194996000Y-91364000D02*
X187884000Y-91364000D01*
X194996000Y-76124000D02*
X187884000Y-76124000D01*
X196520000Y-89840000D02*
X194996000Y-91364000D01*
X194996000Y-73584000D02*
X187884000Y-73584000D01*
X191948000Y-74600000D02*
X193472000Y-74600000D01*
X196520000Y-72060000D02*
X194996000Y-73584000D01*
X191948000Y-89840000D02*
X193472000Y-89840000D01*
X196520000Y-87300000D02*
X194996000Y-88824000D01*
X191948000Y-79680000D02*
X193472000Y-79680000D01*
X196520000Y-82220000D02*
X194996000Y-83744000D01*
X196520000Y-74600000D02*
X194996000Y-76124000D01*
X194996000Y-88824000D02*
X187884000Y-88824000D01*
X191948000Y-72060000D02*
X193472000Y-72060000D01*
X194996000Y-81204000D02*
X187884000Y-81204000D01*
X194996000Y-83744000D02*
X187884000Y-83744000D01*
X196520000Y-77140000D02*
X194996000Y-78664000D01*
X196520000Y-84760000D02*
X194996000Y-86284000D01*
X191948000Y-82220000D02*
X193472000Y-82220000D01*
X196520000Y-79680000D02*
X194996000Y-81204000D01*
X191948000Y-84760000D02*
X193472000Y-84760000D01*
X191948000Y-77140000D02*
X193472000Y-77140000D01*
X191948000Y-87300000D02*
X193472000Y-87300000D01*
X194996000Y-78664000D02*
X187884000Y-78664000D01*
X185642458Y-89278819D02*
X185642458Y-88755009D01*
X185642458Y-88755009D02*
X185594839Y-88659771D01*
X185594839Y-88659771D02*
X185499601Y-88612152D01*
X185499601Y-88612152D02*
X185309125Y-88612152D01*
X185309125Y-88612152D02*
X185213887Y-88659771D01*
X185642458Y-89231200D02*
X185547220Y-89278819D01*
X185547220Y-89278819D02*
X185309125Y-89278819D01*
X185309125Y-89278819D02*
X185213887Y-89231200D01*
X185213887Y-89231200D02*
X185166268Y-89135961D01*
X185166268Y-89135961D02*
X185166268Y-89040723D01*
X185166268Y-89040723D02*
X185213887Y-88945485D01*
X185213887Y-88945485D02*
X185309125Y-88897866D01*
X185309125Y-88897866D02*
X185547220Y-88897866D01*
X185547220Y-88897866D02*
X185642458Y-88850247D01*
X186642458Y-89278819D02*
X186071030Y-89278819D01*
X186356744Y-89278819D02*
X186356744Y-88278819D01*
X186356744Y-88278819D02*
X186261506Y-88421676D01*
X186261506Y-88421676D02*
X186166268Y-88516914D01*
X186166268Y-88516914D02*
X186071030Y-88564533D01*
X187499601Y-88612152D02*
X187499601Y-89278819D01*
X187261506Y-88231200D02*
X187023411Y-88945485D01*
X187023411Y-88945485D02*
X187642458Y-88945485D01*
X189665350Y-72437819D02*
X189665350Y-71914009D01*
X189665350Y-71914009D02*
X189617731Y-71818771D01*
X189617731Y-71818771D02*
X189522493Y-71771152D01*
X189522493Y-71771152D02*
X189332017Y-71771152D01*
X189332017Y-71771152D02*
X189236779Y-71818771D01*
X189665350Y-72390200D02*
X189570112Y-72437819D01*
X189570112Y-72437819D02*
X189332017Y-72437819D01*
X189332017Y-72437819D02*
X189236779Y-72390200D01*
X189236779Y-72390200D02*
X189189160Y-72294961D01*
X189189160Y-72294961D02*
X189189160Y-72199723D01*
X189189160Y-72199723D02*
X189236779Y-72104485D01*
X189236779Y-72104485D02*
X189332017Y-72056866D01*
X189332017Y-72056866D02*
X189570112Y-72056866D01*
X189570112Y-72056866D02*
X189665350Y-72009247D01*
X190570112Y-72437819D02*
X190570112Y-71437819D01*
X190570112Y-72390200D02*
X190474874Y-72437819D01*
X190474874Y-72437819D02*
X190284398Y-72437819D01*
X190284398Y-72437819D02*
X190189160Y-72390200D01*
X190189160Y-72390200D02*
X190141541Y-72342580D01*
X190141541Y-72342580D02*
X190093922Y-72247342D01*
X190093922Y-72247342D02*
X190093922Y-71961628D01*
X190093922Y-71961628D02*
X190141541Y-71866390D01*
X190141541Y-71866390D02*
X190189160Y-71818771D01*
X190189160Y-71818771D02*
X190284398Y-71771152D01*
X190284398Y-71771152D02*
X190474874Y-71771152D01*
X190474874Y-71771152D02*
X190570112Y-71818771D01*
X191236779Y-71437819D02*
X191332017Y-71437819D01*
X191332017Y-71437819D02*
X191427255Y-71485438D01*
X191427255Y-71485438D02*
X191474874Y-71533057D01*
X191474874Y-71533057D02*
X191522493Y-71628295D01*
X191522493Y-71628295D02*
X191570112Y-71818771D01*
X191570112Y-71818771D02*
X191570112Y-72056866D01*
X191570112Y-72056866D02*
X191522493Y-72247342D01*
X191522493Y-72247342D02*
X191474874Y-72342580D01*
X191474874Y-72342580D02*
X191427255Y-72390200D01*
X191427255Y-72390200D02*
X191332017Y-72437819D01*
X191332017Y-72437819D02*
X191236779Y-72437819D01*
X191236779Y-72437819D02*
X191141541Y-72390200D01*
X191141541Y-72390200D02*
X191093922Y-72342580D01*
X191093922Y-72342580D02*
X191046303Y-72247342D01*
X191046303Y-72247342D02*
X190998684Y-72056866D01*
X190998684Y-72056866D02*
X190998684Y-71818771D01*
X190998684Y-71818771D02*
X191046303Y-71628295D01*
X191046303Y-71628295D02*
X191093922Y-71533057D01*
X191093922Y-71533057D02*
X191141541Y-71485438D01*
X191141541Y-71485438D02*
X191236779Y-71437819D01*
X189665350Y-82597819D02*
X189665350Y-82074009D01*
X189665350Y-82074009D02*
X189617731Y-81978771D01*
X189617731Y-81978771D02*
X189522493Y-81931152D01*
X189522493Y-81931152D02*
X189332017Y-81931152D01*
X189332017Y-81931152D02*
X189236779Y-81978771D01*
X189665350Y-82550200D02*
X189570112Y-82597819D01*
X189570112Y-82597819D02*
X189332017Y-82597819D01*
X189332017Y-82597819D02*
X189236779Y-82550200D01*
X189236779Y-82550200D02*
X189189160Y-82454961D01*
X189189160Y-82454961D02*
X189189160Y-82359723D01*
X189189160Y-82359723D02*
X189236779Y-82264485D01*
X189236779Y-82264485D02*
X189332017Y-82216866D01*
X189332017Y-82216866D02*
X189570112Y-82216866D01*
X189570112Y-82216866D02*
X189665350Y-82169247D01*
X190570112Y-82597819D02*
X190570112Y-81597819D01*
X190570112Y-82550200D02*
X190474874Y-82597819D01*
X190474874Y-82597819D02*
X190284398Y-82597819D01*
X190284398Y-82597819D02*
X190189160Y-82550200D01*
X190189160Y-82550200D02*
X190141541Y-82502580D01*
X190141541Y-82502580D02*
X190093922Y-82407342D01*
X190093922Y-82407342D02*
X190093922Y-82121628D01*
X190093922Y-82121628D02*
X190141541Y-82026390D01*
X190141541Y-82026390D02*
X190189160Y-81978771D01*
X190189160Y-81978771D02*
X190284398Y-81931152D01*
X190284398Y-81931152D02*
X190474874Y-81931152D01*
X190474874Y-81931152D02*
X190570112Y-81978771D01*
X191474874Y-81931152D02*
X191474874Y-82597819D01*
X191236779Y-81550200D02*
X190998684Y-82264485D01*
X190998684Y-82264485D02*
X191617731Y-82264485D01*
X189665350Y-90217819D02*
X189665350Y-89694009D01*
X189665350Y-89694009D02*
X189617731Y-89598771D01*
X189617731Y-89598771D02*
X189522493Y-89551152D01*
X189522493Y-89551152D02*
X189332017Y-89551152D01*
X189332017Y-89551152D02*
X189236779Y-89598771D01*
X189665350Y-90170200D02*
X189570112Y-90217819D01*
X189570112Y-90217819D02*
X189332017Y-90217819D01*
X189332017Y-90217819D02*
X189236779Y-90170200D01*
X189236779Y-90170200D02*
X189189160Y-90074961D01*
X189189160Y-90074961D02*
X189189160Y-89979723D01*
X189189160Y-89979723D02*
X189236779Y-89884485D01*
X189236779Y-89884485D02*
X189332017Y-89836866D01*
X189332017Y-89836866D02*
X189570112Y-89836866D01*
X189570112Y-89836866D02*
X189665350Y-89789247D01*
X190570112Y-90217819D02*
X190570112Y-89217819D01*
X190570112Y-90170200D02*
X190474874Y-90217819D01*
X190474874Y-90217819D02*
X190284398Y-90217819D01*
X190284398Y-90217819D02*
X190189160Y-90170200D01*
X190189160Y-90170200D02*
X190141541Y-90122580D01*
X190141541Y-90122580D02*
X190093922Y-90027342D01*
X190093922Y-90027342D02*
X190093922Y-89741628D01*
X190093922Y-89741628D02*
X190141541Y-89646390D01*
X190141541Y-89646390D02*
X190189160Y-89598771D01*
X190189160Y-89598771D02*
X190284398Y-89551152D01*
X190284398Y-89551152D02*
X190474874Y-89551152D01*
X190474874Y-89551152D02*
X190570112Y-89598771D01*
X190951065Y-89217819D02*
X191617731Y-89217819D01*
X191617731Y-89217819D02*
X191189160Y-90217819D01*
X198685208Y-94346478D02*
X199351875Y-94346478D01*
X198685208Y-94775049D02*
X199209017Y-94775049D01*
X199209017Y-94775049D02*
X199304256Y-94727430D01*
X199304256Y-94727430D02*
X199351875Y-94632192D01*
X199351875Y-94632192D02*
X199351875Y-94489335D01*
X199351875Y-94489335D02*
X199304256Y-94394097D01*
X199304256Y-94394097D02*
X199256636Y-94346478D01*
X198685208Y-93870287D02*
X199685208Y-93870287D01*
X198732827Y-93870287D02*
X198685208Y-93775049D01*
X198685208Y-93775049D02*
X198685208Y-93584573D01*
X198685208Y-93584573D02*
X198732827Y-93489335D01*
X198732827Y-93489335D02*
X198780446Y-93441716D01*
X198780446Y-93441716D02*
X198875684Y-93394097D01*
X198875684Y-93394097D02*
X199161398Y-93394097D01*
X199161398Y-93394097D02*
X199256636Y-93441716D01*
X199256636Y-93441716D02*
X199304256Y-93489335D01*
X199304256Y-93489335D02*
X199351875Y-93584573D01*
X199351875Y-93584573D02*
X199351875Y-93775049D01*
X199351875Y-93775049D02*
X199304256Y-93870287D01*
X199351875Y-92536954D02*
X198351875Y-92536954D01*
X199304256Y-92536954D02*
X199351875Y-92632192D01*
X199351875Y-92632192D02*
X199351875Y-92822668D01*
X199351875Y-92822668D02*
X199304256Y-92917906D01*
X199304256Y-92917906D02*
X199256636Y-92965525D01*
X199256636Y-92965525D02*
X199161398Y-93013144D01*
X199161398Y-93013144D02*
X198875684Y-93013144D01*
X198875684Y-93013144D02*
X198780446Y-92965525D01*
X198780446Y-92965525D02*
X198732827Y-92917906D01*
X198732827Y-92917906D02*
X198685208Y-92822668D01*
X198685208Y-92822668D02*
X198685208Y-92632192D01*
X198685208Y-92632192D02*
X198732827Y-92536954D01*
X198351875Y-92156001D02*
X198351875Y-91489335D01*
X198351875Y-91489335D02*
X199351875Y-91917906D01*
X198780446Y-90965525D02*
X198732827Y-91060763D01*
X198732827Y-91060763D02*
X198685208Y-91108382D01*
X198685208Y-91108382D02*
X198589970Y-91156001D01*
X198589970Y-91156001D02*
X198542351Y-91156001D01*
X198542351Y-91156001D02*
X198447113Y-91108382D01*
X198447113Y-91108382D02*
X198399494Y-91060763D01*
X198399494Y-91060763D02*
X198351875Y-90965525D01*
X198351875Y-90965525D02*
X198351875Y-90775049D01*
X198351875Y-90775049D02*
X198399494Y-90679811D01*
X198399494Y-90679811D02*
X198447113Y-90632192D01*
X198447113Y-90632192D02*
X198542351Y-90584573D01*
X198542351Y-90584573D02*
X198589970Y-90584573D01*
X198589970Y-90584573D02*
X198685208Y-90632192D01*
X198685208Y-90632192D02*
X198732827Y-90679811D01*
X198732827Y-90679811D02*
X198780446Y-90775049D01*
X198780446Y-90775049D02*
X198780446Y-90965525D01*
X198780446Y-90965525D02*
X198828065Y-91060763D01*
X198828065Y-91060763D02*
X198875684Y-91108382D01*
X198875684Y-91108382D02*
X198970922Y-91156001D01*
X198970922Y-91156001D02*
X199161398Y-91156001D01*
X199161398Y-91156001D02*
X199256636Y-91108382D01*
X199256636Y-91108382D02*
X199304256Y-91060763D01*
X199304256Y-91060763D02*
X199351875Y-90965525D01*
X199351875Y-90965525D02*
X199351875Y-90775049D01*
X199351875Y-90775049D02*
X199304256Y-90679811D01*
X199304256Y-90679811D02*
X199256636Y-90632192D01*
X199256636Y-90632192D02*
X199161398Y-90584573D01*
X199161398Y-90584573D02*
X198970922Y-90584573D01*
X198970922Y-90584573D02*
X198875684Y-90632192D01*
X198875684Y-90632192D02*
X198828065Y-90679811D01*
X198828065Y-90679811D02*
X198780446Y-90775049D01*
X198447113Y-90203620D02*
X198399494Y-90156001D01*
X198399494Y-90156001D02*
X198351875Y-90060763D01*
X198351875Y-90060763D02*
X198351875Y-89822668D01*
X198351875Y-89822668D02*
X198399494Y-89727430D01*
X198399494Y-89727430D02*
X198447113Y-89679811D01*
X198447113Y-89679811D02*
X198542351Y-89632192D01*
X198542351Y-89632192D02*
X198637589Y-89632192D01*
X198637589Y-89632192D02*
X198780446Y-89679811D01*
X198780446Y-89679811D02*
X199351875Y-90251239D01*
X199351875Y-90251239D02*
X199351875Y-89632192D01*
X199351875Y-88679811D02*
X199351875Y-89251239D01*
X199351875Y-88965525D02*
X198351875Y-88965525D01*
X198351875Y-88965525D02*
X198494732Y-89060763D01*
X198494732Y-89060763D02*
X198589970Y-89156001D01*
X198589970Y-89156001D02*
X198637589Y-89251239D01*
X198685208Y-87822668D02*
X199351875Y-87822668D01*
X198304256Y-88060763D02*
X199018541Y-88298858D01*
X199018541Y-88298858D02*
X199018541Y-87679811D01*
X199351875Y-86536953D02*
X198351875Y-86536953D01*
X198732827Y-86536953D02*
X198685208Y-86441715D01*
X198685208Y-86441715D02*
X198685208Y-86251239D01*
X198685208Y-86251239D02*
X198732827Y-86156001D01*
X198732827Y-86156001D02*
X198780446Y-86108382D01*
X198780446Y-86108382D02*
X198875684Y-86060763D01*
X198875684Y-86060763D02*
X199161398Y-86060763D01*
X199161398Y-86060763D02*
X199256636Y-86108382D01*
X199256636Y-86108382D02*
X199304256Y-86156001D01*
X199304256Y-86156001D02*
X199351875Y-86251239D01*
X199351875Y-86251239D02*
X199351875Y-86441715D01*
X199351875Y-86441715D02*
X199304256Y-86536953D01*
X199351875Y-85632191D02*
X198685208Y-85632191D01*
X198875684Y-85632191D02*
X198780446Y-85584572D01*
X198780446Y-85584572D02*
X198732827Y-85536953D01*
X198732827Y-85536953D02*
X198685208Y-85441715D01*
X198685208Y-85441715D02*
X198685208Y-85346477D01*
X199304256Y-84632191D02*
X199351875Y-84727429D01*
X199351875Y-84727429D02*
X199351875Y-84917905D01*
X199351875Y-84917905D02*
X199304256Y-85013143D01*
X199304256Y-85013143D02*
X199209017Y-85060762D01*
X199209017Y-85060762D02*
X198828065Y-85060762D01*
X198828065Y-85060762D02*
X198732827Y-85013143D01*
X198732827Y-85013143D02*
X198685208Y-84917905D01*
X198685208Y-84917905D02*
X198685208Y-84727429D01*
X198685208Y-84727429D02*
X198732827Y-84632191D01*
X198732827Y-84632191D02*
X198828065Y-84584572D01*
X198828065Y-84584572D02*
X198923303Y-84584572D01*
X198923303Y-84584572D02*
X199018541Y-85060762D01*
X199351875Y-83727429D02*
X198828065Y-83727429D01*
X198828065Y-83727429D02*
X198732827Y-83775048D01*
X198732827Y-83775048D02*
X198685208Y-83870286D01*
X198685208Y-83870286D02*
X198685208Y-84060762D01*
X198685208Y-84060762D02*
X198732827Y-84156000D01*
X199304256Y-83727429D02*
X199351875Y-83822667D01*
X199351875Y-83822667D02*
X199351875Y-84060762D01*
X199351875Y-84060762D02*
X199304256Y-84156000D01*
X199304256Y-84156000D02*
X199209017Y-84203619D01*
X199209017Y-84203619D02*
X199113779Y-84203619D01*
X199113779Y-84203619D02*
X199018541Y-84156000D01*
X199018541Y-84156000D02*
X198970922Y-84060762D01*
X198970922Y-84060762D02*
X198970922Y-83822667D01*
X198970922Y-83822667D02*
X198923303Y-83727429D01*
X199351875Y-83251238D02*
X198351875Y-83251238D01*
X198970922Y-83156000D02*
X199351875Y-82870286D01*
X198685208Y-82870286D02*
X199066160Y-83251238D01*
X199351875Y-82298857D02*
X199304256Y-82394095D01*
X199304256Y-82394095D02*
X199256636Y-82441714D01*
X199256636Y-82441714D02*
X199161398Y-82489333D01*
X199161398Y-82489333D02*
X198875684Y-82489333D01*
X198875684Y-82489333D02*
X198780446Y-82441714D01*
X198780446Y-82441714D02*
X198732827Y-82394095D01*
X198732827Y-82394095D02*
X198685208Y-82298857D01*
X198685208Y-82298857D02*
X198685208Y-82156000D01*
X198685208Y-82156000D02*
X198732827Y-82060762D01*
X198732827Y-82060762D02*
X198780446Y-82013143D01*
X198780446Y-82013143D02*
X198875684Y-81965524D01*
X198875684Y-81965524D02*
X199161398Y-81965524D01*
X199161398Y-81965524D02*
X199256636Y-82013143D01*
X199256636Y-82013143D02*
X199304256Y-82060762D01*
X199304256Y-82060762D02*
X199351875Y-82156000D01*
X199351875Y-82156000D02*
X199351875Y-82298857D01*
X198685208Y-81108381D02*
X199351875Y-81108381D01*
X198685208Y-81536952D02*
X199209017Y-81536952D01*
X199209017Y-81536952D02*
X199304256Y-81489333D01*
X199304256Y-81489333D02*
X199351875Y-81394095D01*
X199351875Y-81394095D02*
X199351875Y-81251238D01*
X199351875Y-81251238D02*
X199304256Y-81156000D01*
X199304256Y-81156000D02*
X199256636Y-81108381D01*
X198685208Y-80775047D02*
X198685208Y-80394095D01*
X198351875Y-80632190D02*
X199209017Y-80632190D01*
X199209017Y-80632190D02*
X199304256Y-80584571D01*
X199304256Y-80584571D02*
X199351875Y-80489333D01*
X199351875Y-80489333D02*
X199351875Y-80394095D01*
X199351875Y-79298856D02*
X198351875Y-79298856D01*
X198732827Y-79298856D02*
X198685208Y-79203618D01*
X198685208Y-79203618D02*
X198685208Y-79013142D01*
X198685208Y-79013142D02*
X198732827Y-78917904D01*
X198732827Y-78917904D02*
X198780446Y-78870285D01*
X198780446Y-78870285D02*
X198875684Y-78822666D01*
X198875684Y-78822666D02*
X199161398Y-78822666D01*
X199161398Y-78822666D02*
X199256636Y-78870285D01*
X199256636Y-78870285D02*
X199304256Y-78917904D01*
X199304256Y-78917904D02*
X199351875Y-79013142D01*
X199351875Y-79013142D02*
X199351875Y-79203618D01*
X199351875Y-79203618D02*
X199304256Y-79298856D01*
X199351875Y-78251237D02*
X199304256Y-78346475D01*
X199304256Y-78346475D02*
X199256636Y-78394094D01*
X199256636Y-78394094D02*
X199161398Y-78441713D01*
X199161398Y-78441713D02*
X198875684Y-78441713D01*
X198875684Y-78441713D02*
X198780446Y-78394094D01*
X198780446Y-78394094D02*
X198732827Y-78346475D01*
X198732827Y-78346475D02*
X198685208Y-78251237D01*
X198685208Y-78251237D02*
X198685208Y-78108380D01*
X198685208Y-78108380D02*
X198732827Y-78013142D01*
X198732827Y-78013142D02*
X198780446Y-77965523D01*
X198780446Y-77965523D02*
X198875684Y-77917904D01*
X198875684Y-77917904D02*
X199161398Y-77917904D01*
X199161398Y-77917904D02*
X199256636Y-77965523D01*
X199256636Y-77965523D02*
X199304256Y-78013142D01*
X199304256Y-78013142D02*
X199351875Y-78108380D01*
X199351875Y-78108380D02*
X199351875Y-78251237D01*
X199351875Y-77060761D02*
X198828065Y-77060761D01*
X198828065Y-77060761D02*
X198732827Y-77108380D01*
X198732827Y-77108380D02*
X198685208Y-77203618D01*
X198685208Y-77203618D02*
X198685208Y-77394094D01*
X198685208Y-77394094D02*
X198732827Y-77489332D01*
X199304256Y-77060761D02*
X199351875Y-77155999D01*
X199351875Y-77155999D02*
X199351875Y-77394094D01*
X199351875Y-77394094D02*
X199304256Y-77489332D01*
X199304256Y-77489332D02*
X199209017Y-77536951D01*
X199209017Y-77536951D02*
X199113779Y-77536951D01*
X199113779Y-77536951D02*
X199018541Y-77489332D01*
X199018541Y-77489332D02*
X198970922Y-77394094D01*
X198970922Y-77394094D02*
X198970922Y-77155999D01*
X198970922Y-77155999D02*
X198923303Y-77060761D01*
X199351875Y-76584570D02*
X198685208Y-76584570D01*
X198875684Y-76584570D02*
X198780446Y-76536951D01*
X198780446Y-76536951D02*
X198732827Y-76489332D01*
X198732827Y-76489332D02*
X198685208Y-76394094D01*
X198685208Y-76394094D02*
X198685208Y-76298856D01*
X199351875Y-75536951D02*
X198351875Y-75536951D01*
X199304256Y-75536951D02*
X199351875Y-75632189D01*
X199351875Y-75632189D02*
X199351875Y-75822665D01*
X199351875Y-75822665D02*
X199304256Y-75917903D01*
X199304256Y-75917903D02*
X199256636Y-75965522D01*
X199256636Y-75965522D02*
X199161398Y-76013141D01*
X199161398Y-76013141D02*
X198875684Y-76013141D01*
X198875684Y-76013141D02*
X198780446Y-75965522D01*
X198780446Y-75965522D02*
X198732827Y-75917903D01*
X198732827Y-75917903D02*
X198685208Y-75822665D01*
X198685208Y-75822665D02*
X198685208Y-75632189D01*
X198685208Y-75632189D02*
X198732827Y-75536951D01*
X198685208Y-74441712D02*
X198685208Y-74060760D01*
X199351875Y-74298855D02*
X198494732Y-74298855D01*
X198494732Y-74298855D02*
X198399494Y-74251236D01*
X198399494Y-74251236D02*
X198351875Y-74155998D01*
X198351875Y-74155998D02*
X198351875Y-74060760D01*
X199351875Y-73584569D02*
X199304256Y-73679807D01*
X199304256Y-73679807D02*
X199256636Y-73727426D01*
X199256636Y-73727426D02*
X199161398Y-73775045D01*
X199161398Y-73775045D02*
X198875684Y-73775045D01*
X198875684Y-73775045D02*
X198780446Y-73727426D01*
X198780446Y-73727426D02*
X198732827Y-73679807D01*
X198732827Y-73679807D02*
X198685208Y-73584569D01*
X198685208Y-73584569D02*
X198685208Y-73441712D01*
X198685208Y-73441712D02*
X198732827Y-73346474D01*
X198732827Y-73346474D02*
X198780446Y-73298855D01*
X198780446Y-73298855D02*
X198875684Y-73251236D01*
X198875684Y-73251236D02*
X199161398Y-73251236D01*
X199161398Y-73251236D02*
X199256636Y-73298855D01*
X199256636Y-73298855D02*
X199304256Y-73346474D01*
X199304256Y-73346474D02*
X199351875Y-73441712D01*
X199351875Y-73441712D02*
X199351875Y-73584569D01*
X199351875Y-72822664D02*
X198685208Y-72822664D01*
X198875684Y-72822664D02*
X198780446Y-72775045D01*
X198780446Y-72775045D02*
X198732827Y-72727426D01*
X198732827Y-72727426D02*
X198685208Y-72632188D01*
X198685208Y-72632188D02*
X198685208Y-72536950D01*
X199351875Y-71013140D02*
X198828065Y-71013140D01*
X198828065Y-71013140D02*
X198732827Y-71060759D01*
X198732827Y-71060759D02*
X198685208Y-71155997D01*
X198685208Y-71155997D02*
X198685208Y-71346473D01*
X198685208Y-71346473D02*
X198732827Y-71441711D01*
X199304256Y-71013140D02*
X199351875Y-71108378D01*
X199351875Y-71108378D02*
X199351875Y-71346473D01*
X199351875Y-71346473D02*
X199304256Y-71441711D01*
X199304256Y-71441711D02*
X199209017Y-71489330D01*
X199209017Y-71489330D02*
X199113779Y-71489330D01*
X199113779Y-71489330D02*
X199018541Y-71441711D01*
X199018541Y-71441711D02*
X198970922Y-71346473D01*
X198970922Y-71346473D02*
X198970922Y-71108378D01*
X198970922Y-71108378D02*
X198923303Y-71013140D01*
X199351875Y-70536949D02*
X198685208Y-70536949D01*
X198875684Y-70536949D02*
X198780446Y-70489330D01*
X198780446Y-70489330D02*
X198732827Y-70441711D01*
X198732827Y-70441711D02*
X198685208Y-70346473D01*
X198685208Y-70346473D02*
X198685208Y-70251235D01*
X199351875Y-69489330D02*
X198351875Y-69489330D01*
X199304256Y-69489330D02*
X199351875Y-69584568D01*
X199351875Y-69584568D02*
X199351875Y-69775044D01*
X199351875Y-69775044D02*
X199304256Y-69870282D01*
X199304256Y-69870282D02*
X199256636Y-69917901D01*
X199256636Y-69917901D02*
X199161398Y-69965520D01*
X199161398Y-69965520D02*
X198875684Y-69965520D01*
X198875684Y-69965520D02*
X198780446Y-69917901D01*
X198780446Y-69917901D02*
X198732827Y-69870282D01*
X198732827Y-69870282D02*
X198685208Y-69775044D01*
X198685208Y-69775044D02*
X198685208Y-69584568D01*
X198685208Y-69584568D02*
X198732827Y-69489330D01*
X198685208Y-68584568D02*
X199351875Y-68584568D01*
X198685208Y-69013139D02*
X199209017Y-69013139D01*
X199209017Y-69013139D02*
X199304256Y-68965520D01*
X199304256Y-68965520D02*
X199351875Y-68870282D01*
X199351875Y-68870282D02*
X199351875Y-68727425D01*
X199351875Y-68727425D02*
X199304256Y-68632187D01*
X199304256Y-68632187D02*
X199256636Y-68584568D01*
X199351875Y-68108377D02*
X198685208Y-68108377D01*
X198351875Y-68108377D02*
X198399494Y-68155996D01*
X198399494Y-68155996D02*
X198447113Y-68108377D01*
X198447113Y-68108377D02*
X198399494Y-68060758D01*
X198399494Y-68060758D02*
X198351875Y-68108377D01*
X198351875Y-68108377D02*
X198447113Y-68108377D01*
X198685208Y-67632187D02*
X199351875Y-67632187D01*
X198780446Y-67632187D02*
X198732827Y-67584568D01*
X198732827Y-67584568D02*
X198685208Y-67489330D01*
X198685208Y-67489330D02*
X198685208Y-67346473D01*
X198685208Y-67346473D02*
X198732827Y-67251235D01*
X198732827Y-67251235D02*
X198828065Y-67203616D01*
X198828065Y-67203616D02*
X199351875Y-67203616D01*
X199351875Y-66584568D02*
X199304256Y-66679806D01*
X199304256Y-66679806D02*
X199256636Y-66727425D01*
X199256636Y-66727425D02*
X199161398Y-66775044D01*
X199161398Y-66775044D02*
X198875684Y-66775044D01*
X198875684Y-66775044D02*
X198780446Y-66727425D01*
X198780446Y-66727425D02*
X198732827Y-66679806D01*
X198732827Y-66679806D02*
X198685208Y-66584568D01*
X198685208Y-66584568D02*
X198685208Y-66441711D01*
X198685208Y-66441711D02*
X198732827Y-66346473D01*
X198732827Y-66346473D02*
X198780446Y-66298854D01*
X198780446Y-66298854D02*
X198875684Y-66251235D01*
X198875684Y-66251235D02*
X199161398Y-66251235D01*
X199161398Y-66251235D02*
X199256636Y-66298854D01*
X199256636Y-66298854D02*
X199304256Y-66346473D01*
X199304256Y-66346473D02*
X199351875Y-66441711D01*
X199351875Y-66441711D02*
X199351875Y-66584568D01*
X199351875Y-65060758D02*
X198685208Y-65060758D01*
X198780446Y-65060758D02*
X198732827Y-65013139D01*
X198732827Y-65013139D02*
X198685208Y-64917901D01*
X198685208Y-64917901D02*
X198685208Y-64775044D01*
X198685208Y-64775044D02*
X198732827Y-64679806D01*
X198732827Y-64679806D02*
X198828065Y-64632187D01*
X198828065Y-64632187D02*
X199351875Y-64632187D01*
X198828065Y-64632187D02*
X198732827Y-64584568D01*
X198732827Y-64584568D02*
X198685208Y-64489330D01*
X198685208Y-64489330D02*
X198685208Y-64346473D01*
X198685208Y-64346473D02*
X198732827Y-64251234D01*
X198732827Y-64251234D02*
X198828065Y-64203615D01*
X198828065Y-64203615D02*
X199351875Y-64203615D01*
X199304256Y-63346473D02*
X199351875Y-63441711D01*
X199351875Y-63441711D02*
X199351875Y-63632187D01*
X199351875Y-63632187D02*
X199304256Y-63727425D01*
X199304256Y-63727425D02*
X199209017Y-63775044D01*
X199209017Y-63775044D02*
X198828065Y-63775044D01*
X198828065Y-63775044D02*
X198732827Y-63727425D01*
X198732827Y-63727425D02*
X198685208Y-63632187D01*
X198685208Y-63632187D02*
X198685208Y-63441711D01*
X198685208Y-63441711D02*
X198732827Y-63346473D01*
X198732827Y-63346473D02*
X198828065Y-63298854D01*
X198828065Y-63298854D02*
X198923303Y-63298854D01*
X198923303Y-63298854D02*
X199018541Y-63775044D01*
X198685208Y-62441711D02*
X199494732Y-62441711D01*
X199494732Y-62441711D02*
X199589970Y-62489330D01*
X199589970Y-62489330D02*
X199637589Y-62536949D01*
X199637589Y-62536949D02*
X199685208Y-62632187D01*
X199685208Y-62632187D02*
X199685208Y-62775044D01*
X199685208Y-62775044D02*
X199637589Y-62870282D01*
X199304256Y-62441711D02*
X199351875Y-62536949D01*
X199351875Y-62536949D02*
X199351875Y-62727425D01*
X199351875Y-62727425D02*
X199304256Y-62822663D01*
X199304256Y-62822663D02*
X199256636Y-62870282D01*
X199256636Y-62870282D02*
X199161398Y-62917901D01*
X199161398Y-62917901D02*
X198875684Y-62917901D01*
X198875684Y-62917901D02*
X198780446Y-62870282D01*
X198780446Y-62870282D02*
X198732827Y-62822663D01*
X198732827Y-62822663D02*
X198685208Y-62727425D01*
X198685208Y-62727425D02*
X198685208Y-62536949D01*
X198685208Y-62536949D02*
X198732827Y-62441711D01*
X199351875Y-61536949D02*
X198828065Y-61536949D01*
X198828065Y-61536949D02*
X198732827Y-61584568D01*
X198732827Y-61584568D02*
X198685208Y-61679806D01*
X198685208Y-61679806D02*
X198685208Y-61870282D01*
X198685208Y-61870282D02*
X198732827Y-61965520D01*
X199304256Y-61536949D02*
X199351875Y-61632187D01*
X199351875Y-61632187D02*
X199351875Y-61870282D01*
X199351875Y-61870282D02*
X199304256Y-61965520D01*
X199304256Y-61965520D02*
X199209017Y-62013139D01*
X199209017Y-62013139D02*
X199113779Y-62013139D01*
X199113779Y-62013139D02*
X199018541Y-61965520D01*
X199018541Y-61965520D02*
X198970922Y-61870282D01*
X198970922Y-61870282D02*
X198970922Y-61632187D01*
X198970922Y-61632187D02*
X198923303Y-61536949D01*
X200057057Y-88060762D02*
X200009438Y-88013143D01*
X200009438Y-88013143D02*
X199961819Y-87917905D01*
X199961819Y-87917905D02*
X199961819Y-87679810D01*
X199961819Y-87679810D02*
X200009438Y-87584572D01*
X200009438Y-87584572D02*
X200057057Y-87536953D01*
X200057057Y-87536953D02*
X200152295Y-87489334D01*
X200152295Y-87489334D02*
X200247533Y-87489334D01*
X200247533Y-87489334D02*
X200390390Y-87536953D01*
X200390390Y-87536953D02*
X200961819Y-88108381D01*
X200961819Y-88108381D02*
X200961819Y-87489334D01*
X199961819Y-86870286D02*
X199961819Y-86775048D01*
X199961819Y-86775048D02*
X200009438Y-86679810D01*
X200009438Y-86679810D02*
X200057057Y-86632191D01*
X200057057Y-86632191D02*
X200152295Y-86584572D01*
X200152295Y-86584572D02*
X200342771Y-86536953D01*
X200342771Y-86536953D02*
X200580866Y-86536953D01*
X200580866Y-86536953D02*
X200771342Y-86584572D01*
X200771342Y-86584572D02*
X200866580Y-86632191D01*
X200866580Y-86632191D02*
X200914200Y-86679810D01*
X200914200Y-86679810D02*
X200961819Y-86775048D01*
X200961819Y-86775048D02*
X200961819Y-86870286D01*
X200961819Y-86870286D02*
X200914200Y-86965524D01*
X200914200Y-86965524D02*
X200866580Y-87013143D01*
X200866580Y-87013143D02*
X200771342Y-87060762D01*
X200771342Y-87060762D02*
X200580866Y-87108381D01*
X200580866Y-87108381D02*
X200342771Y-87108381D01*
X200342771Y-87108381D02*
X200152295Y-87060762D01*
X200152295Y-87060762D02*
X200057057Y-87013143D01*
X200057057Y-87013143D02*
X200009438Y-86965524D01*
X200009438Y-86965524D02*
X199961819Y-86870286D01*
X200057057Y-86156000D02*
X200009438Y-86108381D01*
X200009438Y-86108381D02*
X199961819Y-86013143D01*
X199961819Y-86013143D02*
X199961819Y-85775048D01*
X199961819Y-85775048D02*
X200009438Y-85679810D01*
X200009438Y-85679810D02*
X200057057Y-85632191D01*
X200057057Y-85632191D02*
X200152295Y-85584572D01*
X200152295Y-85584572D02*
X200247533Y-85584572D01*
X200247533Y-85584572D02*
X200390390Y-85632191D01*
X200390390Y-85632191D02*
X200961819Y-86203619D01*
X200961819Y-86203619D02*
X200961819Y-85584572D01*
X199961819Y-84727429D02*
X199961819Y-84917905D01*
X199961819Y-84917905D02*
X200009438Y-85013143D01*
X200009438Y-85013143D02*
X200057057Y-85060762D01*
X200057057Y-85060762D02*
X200199914Y-85156000D01*
X200199914Y-85156000D02*
X200390390Y-85203619D01*
X200390390Y-85203619D02*
X200771342Y-85203619D01*
X200771342Y-85203619D02*
X200866580Y-85156000D01*
X200866580Y-85156000D02*
X200914200Y-85108381D01*
X200914200Y-85108381D02*
X200961819Y-85013143D01*
X200961819Y-85013143D02*
X200961819Y-84822667D01*
X200961819Y-84822667D02*
X200914200Y-84727429D01*
X200914200Y-84727429D02*
X200866580Y-84679810D01*
X200866580Y-84679810D02*
X200771342Y-84632191D01*
X200771342Y-84632191D02*
X200533247Y-84632191D01*
X200533247Y-84632191D02*
X200438009Y-84679810D01*
X200438009Y-84679810D02*
X200390390Y-84727429D01*
X200390390Y-84727429D02*
X200342771Y-84822667D01*
X200342771Y-84822667D02*
X200342771Y-85013143D01*
X200342771Y-85013143D02*
X200390390Y-85108381D01*
X200390390Y-85108381D02*
X200438009Y-85156000D01*
X200438009Y-85156000D02*
X200533247Y-85203619D01*
X200961819Y-83298857D02*
X200914200Y-83394095D01*
X200914200Y-83394095D02*
X200818961Y-83441714D01*
X200818961Y-83441714D02*
X199961819Y-83441714D01*
X200914200Y-82536952D02*
X200961819Y-82632190D01*
X200961819Y-82632190D02*
X200961819Y-82822666D01*
X200961819Y-82822666D02*
X200914200Y-82917904D01*
X200914200Y-82917904D02*
X200818961Y-82965523D01*
X200818961Y-82965523D02*
X200438009Y-82965523D01*
X200438009Y-82965523D02*
X200342771Y-82917904D01*
X200342771Y-82917904D02*
X200295152Y-82822666D01*
X200295152Y-82822666D02*
X200295152Y-82632190D01*
X200295152Y-82632190D02*
X200342771Y-82536952D01*
X200342771Y-82536952D02*
X200438009Y-82489333D01*
X200438009Y-82489333D02*
X200533247Y-82489333D01*
X200533247Y-82489333D02*
X200628485Y-82965523D01*
X200961819Y-81632190D02*
X200438009Y-81632190D01*
X200438009Y-81632190D02*
X200342771Y-81679809D01*
X200342771Y-81679809D02*
X200295152Y-81775047D01*
X200295152Y-81775047D02*
X200295152Y-81965523D01*
X200295152Y-81965523D02*
X200342771Y-82060761D01*
X200914200Y-81632190D02*
X200961819Y-81727428D01*
X200961819Y-81727428D02*
X200961819Y-81965523D01*
X200961819Y-81965523D02*
X200914200Y-82060761D01*
X200914200Y-82060761D02*
X200818961Y-82108380D01*
X200818961Y-82108380D02*
X200723723Y-82108380D01*
X200723723Y-82108380D02*
X200628485Y-82060761D01*
X200628485Y-82060761D02*
X200580866Y-81965523D01*
X200580866Y-81965523D02*
X200580866Y-81727428D01*
X200580866Y-81727428D02*
X200533247Y-81632190D01*
X200961819Y-80727428D02*
X199961819Y-80727428D01*
X200914200Y-80727428D02*
X200961819Y-80822666D01*
X200961819Y-80822666D02*
X200961819Y-81013142D01*
X200961819Y-81013142D02*
X200914200Y-81108380D01*
X200914200Y-81108380D02*
X200866580Y-81155999D01*
X200866580Y-81155999D02*
X200771342Y-81203618D01*
X200771342Y-81203618D02*
X200485628Y-81203618D01*
X200485628Y-81203618D02*
X200390390Y-81155999D01*
X200390390Y-81155999D02*
X200342771Y-81108380D01*
X200342771Y-81108380D02*
X200295152Y-81013142D01*
X200295152Y-81013142D02*
X200295152Y-80822666D01*
X200295152Y-80822666D02*
X200342771Y-80727428D01*
X200914200Y-79870285D02*
X200961819Y-79965523D01*
X200961819Y-79965523D02*
X200961819Y-80155999D01*
X200961819Y-80155999D02*
X200914200Y-80251237D01*
X200914200Y-80251237D02*
X200818961Y-80298856D01*
X200818961Y-80298856D02*
X200438009Y-80298856D01*
X200438009Y-80298856D02*
X200342771Y-80251237D01*
X200342771Y-80251237D02*
X200295152Y-80155999D01*
X200295152Y-80155999D02*
X200295152Y-79965523D01*
X200295152Y-79965523D02*
X200342771Y-79870285D01*
X200342771Y-79870285D02*
X200438009Y-79822666D01*
X200438009Y-79822666D02*
X200533247Y-79822666D01*
X200533247Y-79822666D02*
X200628485Y-80298856D01*
X200961819Y-78965523D02*
X199961819Y-78965523D01*
X200914200Y-78965523D02*
X200961819Y-79060761D01*
X200961819Y-79060761D02*
X200961819Y-79251237D01*
X200961819Y-79251237D02*
X200914200Y-79346475D01*
X200914200Y-79346475D02*
X200866580Y-79394094D01*
X200866580Y-79394094D02*
X200771342Y-79441713D01*
X200771342Y-79441713D02*
X200485628Y-79441713D01*
X200485628Y-79441713D02*
X200390390Y-79394094D01*
X200390390Y-79394094D02*
X200342771Y-79346475D01*
X200342771Y-79346475D02*
X200295152Y-79251237D01*
X200295152Y-79251237D02*
X200295152Y-79060761D01*
X200295152Y-79060761D02*
X200342771Y-78965523D01*
X200914200Y-78536951D02*
X200961819Y-78441713D01*
X200961819Y-78441713D02*
X200961819Y-78251237D01*
X200961819Y-78251237D02*
X200914200Y-78155999D01*
X200914200Y-78155999D02*
X200818961Y-78108380D01*
X200818961Y-78108380D02*
X200771342Y-78108380D01*
X200771342Y-78108380D02*
X200676104Y-78155999D01*
X200676104Y-78155999D02*
X200628485Y-78251237D01*
X200628485Y-78251237D02*
X200628485Y-78394094D01*
X200628485Y-78394094D02*
X200580866Y-78489332D01*
X200580866Y-78489332D02*
X200485628Y-78536951D01*
X200485628Y-78536951D02*
X200438009Y-78536951D01*
X200438009Y-78536951D02*
X200342771Y-78489332D01*
X200342771Y-78489332D02*
X200295152Y-78394094D01*
X200295152Y-78394094D02*
X200295152Y-78251237D01*
X200295152Y-78251237D02*
X200342771Y-78155999D01*
X200961819Y-77536951D02*
X200914200Y-77632189D01*
X200914200Y-77632189D02*
X200866580Y-77679808D01*
X200866580Y-77679808D02*
X200771342Y-77727427D01*
X200771342Y-77727427D02*
X200485628Y-77727427D01*
X200485628Y-77727427D02*
X200390390Y-77679808D01*
X200390390Y-77679808D02*
X200342771Y-77632189D01*
X200342771Y-77632189D02*
X200295152Y-77536951D01*
X200295152Y-77536951D02*
X200295152Y-77394094D01*
X200295152Y-77394094D02*
X200342771Y-77298856D01*
X200342771Y-77298856D02*
X200390390Y-77251237D01*
X200390390Y-77251237D02*
X200485628Y-77203618D01*
X200485628Y-77203618D02*
X200771342Y-77203618D01*
X200771342Y-77203618D02*
X200866580Y-77251237D01*
X200866580Y-77251237D02*
X200914200Y-77298856D01*
X200914200Y-77298856D02*
X200961819Y-77394094D01*
X200961819Y-77394094D02*
X200961819Y-77536951D01*
X200961819Y-76632189D02*
X200914200Y-76727427D01*
X200914200Y-76727427D02*
X200818961Y-76775046D01*
X200818961Y-76775046D02*
X199961819Y-76775046D01*
X200961819Y-75822665D02*
X199961819Y-75822665D01*
X200914200Y-75822665D02*
X200961819Y-75917903D01*
X200961819Y-75917903D02*
X200961819Y-76108379D01*
X200961819Y-76108379D02*
X200914200Y-76203617D01*
X200914200Y-76203617D02*
X200866580Y-76251236D01*
X200866580Y-76251236D02*
X200771342Y-76298855D01*
X200771342Y-76298855D02*
X200485628Y-76298855D01*
X200485628Y-76298855D02*
X200390390Y-76251236D01*
X200390390Y-76251236D02*
X200342771Y-76203617D01*
X200342771Y-76203617D02*
X200295152Y-76108379D01*
X200295152Y-76108379D02*
X200295152Y-75917903D01*
X200295152Y-75917903D02*
X200342771Y-75822665D01*
X200914200Y-74965522D02*
X200961819Y-75060760D01*
X200961819Y-75060760D02*
X200961819Y-75251236D01*
X200961819Y-75251236D02*
X200914200Y-75346474D01*
X200914200Y-75346474D02*
X200818961Y-75394093D01*
X200818961Y-75394093D02*
X200438009Y-75394093D01*
X200438009Y-75394093D02*
X200342771Y-75346474D01*
X200342771Y-75346474D02*
X200295152Y-75251236D01*
X200295152Y-75251236D02*
X200295152Y-75060760D01*
X200295152Y-75060760D02*
X200342771Y-74965522D01*
X200342771Y-74965522D02*
X200438009Y-74917903D01*
X200438009Y-74917903D02*
X200533247Y-74917903D01*
X200533247Y-74917903D02*
X200628485Y-75394093D01*
X200961819Y-74489331D02*
X200295152Y-74489331D01*
X200485628Y-74489331D02*
X200390390Y-74441712D01*
X200390390Y-74441712D02*
X200342771Y-74394093D01*
X200342771Y-74394093D02*
X200295152Y-74298855D01*
X200295152Y-74298855D02*
X200295152Y-74203617D01*
X200866580Y-73870283D02*
X200914200Y-73822664D01*
X200914200Y-73822664D02*
X200961819Y-73870283D01*
X200961819Y-73870283D02*
X200914200Y-73917902D01*
X200914200Y-73917902D02*
X200866580Y-73870283D01*
X200866580Y-73870283D02*
X200961819Y-73870283D01*
X200914200Y-72965522D02*
X200961819Y-73060760D01*
X200961819Y-73060760D02*
X200961819Y-73251236D01*
X200961819Y-73251236D02*
X200914200Y-73346474D01*
X200914200Y-73346474D02*
X200866580Y-73394093D01*
X200866580Y-73394093D02*
X200771342Y-73441712D01*
X200771342Y-73441712D02*
X200485628Y-73441712D01*
X200485628Y-73441712D02*
X200390390Y-73394093D01*
X200390390Y-73394093D02*
X200342771Y-73346474D01*
X200342771Y-73346474D02*
X200295152Y-73251236D01*
X200295152Y-73251236D02*
X200295152Y-73060760D01*
X200295152Y-73060760D02*
X200342771Y-72965522D01*
X200961819Y-72394093D02*
X200914200Y-72489331D01*
X200914200Y-72489331D02*
X200866580Y-72536950D01*
X200866580Y-72536950D02*
X200771342Y-72584569D01*
X200771342Y-72584569D02*
X200485628Y-72584569D01*
X200485628Y-72584569D02*
X200390390Y-72536950D01*
X200390390Y-72536950D02*
X200342771Y-72489331D01*
X200342771Y-72489331D02*
X200295152Y-72394093D01*
X200295152Y-72394093D02*
X200295152Y-72251236D01*
X200295152Y-72251236D02*
X200342771Y-72155998D01*
X200342771Y-72155998D02*
X200390390Y-72108379D01*
X200390390Y-72108379D02*
X200485628Y-72060760D01*
X200485628Y-72060760D02*
X200771342Y-72060760D01*
X200771342Y-72060760D02*
X200866580Y-72108379D01*
X200866580Y-72108379D02*
X200914200Y-72155998D01*
X200914200Y-72155998D02*
X200961819Y-72251236D01*
X200961819Y-72251236D02*
X200961819Y-72394093D01*
X200961819Y-71632188D02*
X200295152Y-71632188D01*
X200390390Y-71632188D02*
X200342771Y-71584569D01*
X200342771Y-71584569D02*
X200295152Y-71489331D01*
X200295152Y-71489331D02*
X200295152Y-71346474D01*
X200295152Y-71346474D02*
X200342771Y-71251236D01*
X200342771Y-71251236D02*
X200438009Y-71203617D01*
X200438009Y-71203617D02*
X200961819Y-71203617D01*
X200438009Y-71203617D02*
X200342771Y-71155998D01*
X200342771Y-71155998D02*
X200295152Y-71060760D01*
X200295152Y-71060760D02*
X200295152Y-70917903D01*
X200295152Y-70917903D02*
X200342771Y-70822664D01*
X200342771Y-70822664D02*
X200438009Y-70775045D01*
X200438009Y-70775045D02*
X200961819Y-70775045D01*
X200295152Y-69632188D02*
X200961819Y-69394093D01*
X200961819Y-69394093D02*
X200295152Y-69155998D01*
X200961819Y-68251236D02*
X200961819Y-68822664D01*
X200961819Y-68536950D02*
X199961819Y-68536950D01*
X199961819Y-68536950D02*
X200104676Y-68632188D01*
X200104676Y-68632188D02*
X200199914Y-68727426D01*
X200199914Y-68727426D02*
X200247533Y-68822664D01*
X189665350Y-87677819D02*
X189665350Y-87154009D01*
X189665350Y-87154009D02*
X189617731Y-87058771D01*
X189617731Y-87058771D02*
X189522493Y-87011152D01*
X189522493Y-87011152D02*
X189332017Y-87011152D01*
X189332017Y-87011152D02*
X189236779Y-87058771D01*
X189665350Y-87630200D02*
X189570112Y-87677819D01*
X189570112Y-87677819D02*
X189332017Y-87677819D01*
X189332017Y-87677819D02*
X189236779Y-87630200D01*
X189236779Y-87630200D02*
X189189160Y-87534961D01*
X189189160Y-87534961D02*
X189189160Y-87439723D01*
X189189160Y-87439723D02*
X189236779Y-87344485D01*
X189236779Y-87344485D02*
X189332017Y-87296866D01*
X189332017Y-87296866D02*
X189570112Y-87296866D01*
X189570112Y-87296866D02*
X189665350Y-87249247D01*
X190570112Y-87677819D02*
X190570112Y-86677819D01*
X190570112Y-87630200D02*
X190474874Y-87677819D01*
X190474874Y-87677819D02*
X190284398Y-87677819D01*
X190284398Y-87677819D02*
X190189160Y-87630200D01*
X190189160Y-87630200D02*
X190141541Y-87582580D01*
X190141541Y-87582580D02*
X190093922Y-87487342D01*
X190093922Y-87487342D02*
X190093922Y-87201628D01*
X190093922Y-87201628D02*
X190141541Y-87106390D01*
X190141541Y-87106390D02*
X190189160Y-87058771D01*
X190189160Y-87058771D02*
X190284398Y-87011152D01*
X190284398Y-87011152D02*
X190474874Y-87011152D01*
X190474874Y-87011152D02*
X190570112Y-87058771D01*
X191474874Y-86677819D02*
X191284398Y-86677819D01*
X191284398Y-86677819D02*
X191189160Y-86725438D01*
X191189160Y-86725438D02*
X191141541Y-86773057D01*
X191141541Y-86773057D02*
X191046303Y-86915914D01*
X191046303Y-86915914D02*
X190998684Y-87106390D01*
X190998684Y-87106390D02*
X190998684Y-87487342D01*
X190998684Y-87487342D02*
X191046303Y-87582580D01*
X191046303Y-87582580D02*
X191093922Y-87630200D01*
X191093922Y-87630200D02*
X191189160Y-87677819D01*
X191189160Y-87677819D02*
X191379636Y-87677819D01*
X191379636Y-87677819D02*
X191474874Y-87630200D01*
X191474874Y-87630200D02*
X191522493Y-87582580D01*
X191522493Y-87582580D02*
X191570112Y-87487342D01*
X191570112Y-87487342D02*
X191570112Y-87249247D01*
X191570112Y-87249247D02*
X191522493Y-87154009D01*
X191522493Y-87154009D02*
X191474874Y-87106390D01*
X191474874Y-87106390D02*
X191379636Y-87058771D01*
X191379636Y-87058771D02*
X191189160Y-87058771D01*
X191189160Y-87058771D02*
X191093922Y-87106390D01*
X191093922Y-87106390D02*
X191046303Y-87154009D01*
X191046303Y-87154009D02*
X190998684Y-87249247D01*
X186594839Y-76578819D02*
X186594839Y-76055009D01*
X186594839Y-76055009D02*
X186547220Y-75959771D01*
X186547220Y-75959771D02*
X186451982Y-75912152D01*
X186451982Y-75912152D02*
X186261506Y-75912152D01*
X186261506Y-75912152D02*
X186166268Y-75959771D01*
X186594839Y-76531200D02*
X186499601Y-76578819D01*
X186499601Y-76578819D02*
X186261506Y-76578819D01*
X186261506Y-76578819D02*
X186166268Y-76531200D01*
X186166268Y-76531200D02*
X186118649Y-76435961D01*
X186118649Y-76435961D02*
X186118649Y-76340723D01*
X186118649Y-76340723D02*
X186166268Y-76245485D01*
X186166268Y-76245485D02*
X186261506Y-76197866D01*
X186261506Y-76197866D02*
X186499601Y-76197866D01*
X186499601Y-76197866D02*
X186594839Y-76150247D01*
X187118649Y-76578819D02*
X187309125Y-76578819D01*
X187309125Y-76578819D02*
X187404363Y-76531200D01*
X187404363Y-76531200D02*
X187451982Y-76483580D01*
X187451982Y-76483580D02*
X187547220Y-76340723D01*
X187547220Y-76340723D02*
X187594839Y-76150247D01*
X187594839Y-76150247D02*
X187594839Y-75769295D01*
X187594839Y-75769295D02*
X187547220Y-75674057D01*
X187547220Y-75674057D02*
X187499601Y-75626438D01*
X187499601Y-75626438D02*
X187404363Y-75578819D01*
X187404363Y-75578819D02*
X187213887Y-75578819D01*
X187213887Y-75578819D02*
X187118649Y-75626438D01*
X187118649Y-75626438D02*
X187071030Y-75674057D01*
X187071030Y-75674057D02*
X187023411Y-75769295D01*
X187023411Y-75769295D02*
X187023411Y-76007390D01*
X187023411Y-76007390D02*
X187071030Y-76102628D01*
X187071030Y-76102628D02*
X187118649Y-76150247D01*
X187118649Y-76150247D02*
X187213887Y-76197866D01*
X187213887Y-76197866D02*
X187404363Y-76197866D01*
X187404363Y-76197866D02*
X187499601Y-76150247D01*
X187499601Y-76150247D02*
X187547220Y-76102628D01*
X187547220Y-76102628D02*
X187594839Y-76007390D01*
X159888571Y-47076414D02*
X160269523Y-47076414D01*
X160031428Y-46826414D02*
X160031428Y-47469271D01*
X160031428Y-47469271D02*
X160079047Y-47540700D01*
X160079047Y-47540700D02*
X160174285Y-47576414D01*
X160174285Y-47576414D02*
X160269523Y-47576414D01*
X160507619Y-47576414D02*
X161031428Y-47076414D01*
X160507619Y-47076414D02*
X161031428Y-47576414D01*
X161602857Y-46826414D02*
X161698095Y-46826414D01*
X161698095Y-46826414D02*
X161793333Y-46862128D01*
X161793333Y-46862128D02*
X161840952Y-46897842D01*
X161840952Y-46897842D02*
X161888571Y-46969271D01*
X161888571Y-46969271D02*
X161936190Y-47112128D01*
X161936190Y-47112128D02*
X161936190Y-47290700D01*
X161936190Y-47290700D02*
X161888571Y-47433557D01*
X161888571Y-47433557D02*
X161840952Y-47504985D01*
X161840952Y-47504985D02*
X161793333Y-47540700D01*
X161793333Y-47540700D02*
X161698095Y-47576414D01*
X161698095Y-47576414D02*
X161602857Y-47576414D01*
X161602857Y-47576414D02*
X161507619Y-47540700D01*
X161507619Y-47540700D02*
X161460000Y-47504985D01*
X161460000Y-47504985D02*
X161412381Y-47433557D01*
X161412381Y-47433557D02*
X161364762Y-47290700D01*
X161364762Y-47290700D02*
X161364762Y-47112128D01*
X161364762Y-47112128D02*
X161412381Y-46969271D01*
X161412381Y-46969271D02*
X161460000Y-46897842D01*
X161460000Y-46897842D02*
X161507619Y-46862128D01*
X161507619Y-46862128D02*
X161602857Y-46826414D01*
X185642458Y-84198819D02*
X185642458Y-83675009D01*
X185642458Y-83675009D02*
X185594839Y-83579771D01*
X185594839Y-83579771D02*
X185499601Y-83532152D01*
X185499601Y-83532152D02*
X185309125Y-83532152D01*
X185309125Y-83532152D02*
X185213887Y-83579771D01*
X185642458Y-84151200D02*
X185547220Y-84198819D01*
X185547220Y-84198819D02*
X185309125Y-84198819D01*
X185309125Y-84198819D02*
X185213887Y-84151200D01*
X185213887Y-84151200D02*
X185166268Y-84055961D01*
X185166268Y-84055961D02*
X185166268Y-83960723D01*
X185166268Y-83960723D02*
X185213887Y-83865485D01*
X185213887Y-83865485D02*
X185309125Y-83817866D01*
X185309125Y-83817866D02*
X185547220Y-83817866D01*
X185547220Y-83817866D02*
X185642458Y-83770247D01*
X186642458Y-84198819D02*
X186071030Y-84198819D01*
X186356744Y-84198819D02*
X186356744Y-83198819D01*
X186356744Y-83198819D02*
X186261506Y-83341676D01*
X186261506Y-83341676D02*
X186166268Y-83436914D01*
X186166268Y-83436914D02*
X186071030Y-83484533D01*
X187023411Y-83294057D02*
X187071030Y-83246438D01*
X187071030Y-83246438D02*
X187166268Y-83198819D01*
X187166268Y-83198819D02*
X187404363Y-83198819D01*
X187404363Y-83198819D02*
X187499601Y-83246438D01*
X187499601Y-83246438D02*
X187547220Y-83294057D01*
X187547220Y-83294057D02*
X187594839Y-83389295D01*
X187594839Y-83389295D02*
X187594839Y-83484533D01*
X187594839Y-83484533D02*
X187547220Y-83627390D01*
X187547220Y-83627390D02*
X186975792Y-84198819D01*
X186975792Y-84198819D02*
X187594839Y-84198819D01*
X185642458Y-79118819D02*
X185642458Y-78595009D01*
X185642458Y-78595009D02*
X185594839Y-78499771D01*
X185594839Y-78499771D02*
X185499601Y-78452152D01*
X185499601Y-78452152D02*
X185309125Y-78452152D01*
X185309125Y-78452152D02*
X185213887Y-78499771D01*
X185642458Y-79071200D02*
X185547220Y-79118819D01*
X185547220Y-79118819D02*
X185309125Y-79118819D01*
X185309125Y-79118819D02*
X185213887Y-79071200D01*
X185213887Y-79071200D02*
X185166268Y-78975961D01*
X185166268Y-78975961D02*
X185166268Y-78880723D01*
X185166268Y-78880723D02*
X185213887Y-78785485D01*
X185213887Y-78785485D02*
X185309125Y-78737866D01*
X185309125Y-78737866D02*
X185547220Y-78737866D01*
X185547220Y-78737866D02*
X185642458Y-78690247D01*
X186642458Y-79118819D02*
X186071030Y-79118819D01*
X186356744Y-79118819D02*
X186356744Y-78118819D01*
X186356744Y-78118819D02*
X186261506Y-78261676D01*
X186261506Y-78261676D02*
X186166268Y-78356914D01*
X186166268Y-78356914D02*
X186071030Y-78404533D01*
X187261506Y-78118819D02*
X187356744Y-78118819D01*
X187356744Y-78118819D02*
X187451982Y-78166438D01*
X187451982Y-78166438D02*
X187499601Y-78214057D01*
X187499601Y-78214057D02*
X187547220Y-78309295D01*
X187547220Y-78309295D02*
X187594839Y-78499771D01*
X187594839Y-78499771D02*
X187594839Y-78737866D01*
X187594839Y-78737866D02*
X187547220Y-78928342D01*
X187547220Y-78928342D02*
X187499601Y-79023580D01*
X187499601Y-79023580D02*
X187451982Y-79071200D01*
X187451982Y-79071200D02*
X187356744Y-79118819D01*
X187356744Y-79118819D02*
X187261506Y-79118819D01*
X187261506Y-79118819D02*
X187166268Y-79071200D01*
X187166268Y-79071200D02*
X187118649Y-79023580D01*
X187118649Y-79023580D02*
X187071030Y-78928342D01*
X187071030Y-78928342D02*
X187023411Y-78737866D01*
X187023411Y-78737866D02*
X187023411Y-78499771D01*
X187023411Y-78499771D02*
X187071030Y-78309295D01*
X187071030Y-78309295D02*
X187118649Y-78214057D01*
X187118649Y-78214057D02*
X187166268Y-78166438D01*
X187166268Y-78166438D02*
X187261506Y-78118819D01*
X162547619Y-47576414D02*
X162547619Y-47076414D01*
X162547619Y-47219271D02*
X162595238Y-47147842D01*
X162595238Y-47147842D02*
X162642857Y-47112128D01*
X162642857Y-47112128D02*
X162738095Y-47076414D01*
X162738095Y-47076414D02*
X162833333Y-47076414D01*
X163071429Y-47576414D02*
X163595238Y-47076414D01*
X163071429Y-47076414D02*
X163595238Y-47576414D01*
X164166667Y-46826414D02*
X164261905Y-46826414D01*
X164261905Y-46826414D02*
X164357143Y-46862128D01*
X164357143Y-46862128D02*
X164404762Y-46897842D01*
X164404762Y-46897842D02*
X164452381Y-46969271D01*
X164452381Y-46969271D02*
X164500000Y-47112128D01*
X164500000Y-47112128D02*
X164500000Y-47290700D01*
X164500000Y-47290700D02*
X164452381Y-47433557D01*
X164452381Y-47433557D02*
X164404762Y-47504985D01*
X164404762Y-47504985D02*
X164357143Y-47540700D01*
X164357143Y-47540700D02*
X164261905Y-47576414D01*
X164261905Y-47576414D02*
X164166667Y-47576414D01*
X164166667Y-47576414D02*
X164071429Y-47540700D01*
X164071429Y-47540700D02*
X164023810Y-47504985D01*
X164023810Y-47504985D02*
X163976191Y-47433557D01*
X163976191Y-47433557D02*
X163928572Y-47290700D01*
X163928572Y-47290700D02*
X163928572Y-47112128D01*
X163928572Y-47112128D02*
X163976191Y-46969271D01*
X163976191Y-46969271D02*
X164023810Y-46897842D01*
X164023810Y-46897842D02*
X164071429Y-46862128D01*
X164071429Y-46862128D02*
X164166667Y-46826414D01*
X189665350Y-74977819D02*
X189665350Y-74454009D01*
X189665350Y-74454009D02*
X189617731Y-74358771D01*
X189617731Y-74358771D02*
X189522493Y-74311152D01*
X189522493Y-74311152D02*
X189332017Y-74311152D01*
X189332017Y-74311152D02*
X189236779Y-74358771D01*
X189665350Y-74930200D02*
X189570112Y-74977819D01*
X189570112Y-74977819D02*
X189332017Y-74977819D01*
X189332017Y-74977819D02*
X189236779Y-74930200D01*
X189236779Y-74930200D02*
X189189160Y-74834961D01*
X189189160Y-74834961D02*
X189189160Y-74739723D01*
X189189160Y-74739723D02*
X189236779Y-74644485D01*
X189236779Y-74644485D02*
X189332017Y-74596866D01*
X189332017Y-74596866D02*
X189570112Y-74596866D01*
X189570112Y-74596866D02*
X189665350Y-74549247D01*
X190570112Y-74977819D02*
X190570112Y-73977819D01*
X190570112Y-74930200D02*
X190474874Y-74977819D01*
X190474874Y-74977819D02*
X190284398Y-74977819D01*
X190284398Y-74977819D02*
X190189160Y-74930200D01*
X190189160Y-74930200D02*
X190141541Y-74882580D01*
X190141541Y-74882580D02*
X190093922Y-74787342D01*
X190093922Y-74787342D02*
X190093922Y-74501628D01*
X190093922Y-74501628D02*
X190141541Y-74406390D01*
X190141541Y-74406390D02*
X190189160Y-74358771D01*
X190189160Y-74358771D02*
X190284398Y-74311152D01*
X190284398Y-74311152D02*
X190474874Y-74311152D01*
X190474874Y-74311152D02*
X190570112Y-74358771D01*
X191570112Y-74977819D02*
X190998684Y-74977819D01*
X191284398Y-74977819D02*
X191284398Y-73977819D01*
X191284398Y-73977819D02*
X191189160Y-74120676D01*
X191189160Y-74120676D02*
X191093922Y-74215914D01*
X191093922Y-74215914D02*
X190998684Y-74263533D01*
X189665350Y-80057819D02*
X189665350Y-79534009D01*
X189665350Y-79534009D02*
X189617731Y-79438771D01*
X189617731Y-79438771D02*
X189522493Y-79391152D01*
X189522493Y-79391152D02*
X189332017Y-79391152D01*
X189332017Y-79391152D02*
X189236779Y-79438771D01*
X189665350Y-80010200D02*
X189570112Y-80057819D01*
X189570112Y-80057819D02*
X189332017Y-80057819D01*
X189332017Y-80057819D02*
X189236779Y-80010200D01*
X189236779Y-80010200D02*
X189189160Y-79914961D01*
X189189160Y-79914961D02*
X189189160Y-79819723D01*
X189189160Y-79819723D02*
X189236779Y-79724485D01*
X189236779Y-79724485D02*
X189332017Y-79676866D01*
X189332017Y-79676866D02*
X189570112Y-79676866D01*
X189570112Y-79676866D02*
X189665350Y-79629247D01*
X190570112Y-80057819D02*
X190570112Y-79057819D01*
X190570112Y-80010200D02*
X190474874Y-80057819D01*
X190474874Y-80057819D02*
X190284398Y-80057819D01*
X190284398Y-80057819D02*
X190189160Y-80010200D01*
X190189160Y-80010200D02*
X190141541Y-79962580D01*
X190141541Y-79962580D02*
X190093922Y-79867342D01*
X190093922Y-79867342D02*
X190093922Y-79581628D01*
X190093922Y-79581628D02*
X190141541Y-79486390D01*
X190141541Y-79486390D02*
X190189160Y-79438771D01*
X190189160Y-79438771D02*
X190284398Y-79391152D01*
X190284398Y-79391152D02*
X190474874Y-79391152D01*
X190474874Y-79391152D02*
X190570112Y-79438771D01*
X190951065Y-79057819D02*
X191570112Y-79057819D01*
X191570112Y-79057819D02*
X191236779Y-79438771D01*
X191236779Y-79438771D02*
X191379636Y-79438771D01*
X191379636Y-79438771D02*
X191474874Y-79486390D01*
X191474874Y-79486390D02*
X191522493Y-79534009D01*
X191522493Y-79534009D02*
X191570112Y-79629247D01*
X191570112Y-79629247D02*
X191570112Y-79867342D01*
X191570112Y-79867342D02*
X191522493Y-79962580D01*
X191522493Y-79962580D02*
X191474874Y-80010200D01*
X191474874Y-80010200D02*
X191379636Y-80057819D01*
X191379636Y-80057819D02*
X191093922Y-80057819D01*
X191093922Y-80057819D02*
X190998684Y-80010200D01*
X190998684Y-80010200D02*
X190951065Y-79962580D01*
X186594839Y-74038819D02*
X186594839Y-73515009D01*
X186594839Y-73515009D02*
X186547220Y-73419771D01*
X186547220Y-73419771D02*
X186451982Y-73372152D01*
X186451982Y-73372152D02*
X186261506Y-73372152D01*
X186261506Y-73372152D02*
X186166268Y-73419771D01*
X186594839Y-73991200D02*
X186499601Y-74038819D01*
X186499601Y-74038819D02*
X186261506Y-74038819D01*
X186261506Y-74038819D02*
X186166268Y-73991200D01*
X186166268Y-73991200D02*
X186118649Y-73895961D01*
X186118649Y-73895961D02*
X186118649Y-73800723D01*
X186118649Y-73800723D02*
X186166268Y-73705485D01*
X186166268Y-73705485D02*
X186261506Y-73657866D01*
X186261506Y-73657866D02*
X186499601Y-73657866D01*
X186499601Y-73657866D02*
X186594839Y-73610247D01*
X187213887Y-73467390D02*
X187118649Y-73419771D01*
X187118649Y-73419771D02*
X187071030Y-73372152D01*
X187071030Y-73372152D02*
X187023411Y-73276914D01*
X187023411Y-73276914D02*
X187023411Y-73229295D01*
X187023411Y-73229295D02*
X187071030Y-73134057D01*
X187071030Y-73134057D02*
X187118649Y-73086438D01*
X187118649Y-73086438D02*
X187213887Y-73038819D01*
X187213887Y-73038819D02*
X187404363Y-73038819D01*
X187404363Y-73038819D02*
X187499601Y-73086438D01*
X187499601Y-73086438D02*
X187547220Y-73134057D01*
X187547220Y-73134057D02*
X187594839Y-73229295D01*
X187594839Y-73229295D02*
X187594839Y-73276914D01*
X187594839Y-73276914D02*
X187547220Y-73372152D01*
X187547220Y-73372152D02*
X187499601Y-73419771D01*
X187499601Y-73419771D02*
X187404363Y-73467390D01*
X187404363Y-73467390D02*
X187213887Y-73467390D01*
X187213887Y-73467390D02*
X187118649Y-73515009D01*
X187118649Y-73515009D02*
X187071030Y-73562628D01*
X187071030Y-73562628D02*
X187023411Y-73657866D01*
X187023411Y-73657866D02*
X187023411Y-73848342D01*
X187023411Y-73848342D02*
X187071030Y-73943580D01*
X187071030Y-73943580D02*
X187118649Y-73991200D01*
X187118649Y-73991200D02*
X187213887Y-74038819D01*
X187213887Y-74038819D02*
X187404363Y-74038819D01*
X187404363Y-74038819D02*
X187499601Y-73991200D01*
X187499601Y-73991200D02*
X187547220Y-73943580D01*
X187547220Y-73943580D02*
X187594839Y-73848342D01*
X187594839Y-73848342D02*
X187594839Y-73657866D01*
X187594839Y-73657866D02*
X187547220Y-73562628D01*
X187547220Y-73562628D02*
X187499601Y-73515009D01*
X187499601Y-73515009D02*
X187404363Y-73467390D01*
X185642458Y-81658819D02*
X185642458Y-81135009D01*
X185642458Y-81135009D02*
X185594839Y-81039771D01*
X185594839Y-81039771D02*
X185499601Y-80992152D01*
X185499601Y-80992152D02*
X185309125Y-80992152D01*
X185309125Y-80992152D02*
X185213887Y-81039771D01*
X185642458Y-81611200D02*
X185547220Y-81658819D01*
X185547220Y-81658819D02*
X185309125Y-81658819D01*
X185309125Y-81658819D02*
X185213887Y-81611200D01*
X185213887Y-81611200D02*
X185166268Y-81515961D01*
X185166268Y-81515961D02*
X185166268Y-81420723D01*
X185166268Y-81420723D02*
X185213887Y-81325485D01*
X185213887Y-81325485D02*
X185309125Y-81277866D01*
X185309125Y-81277866D02*
X185547220Y-81277866D01*
X185547220Y-81277866D02*
X185642458Y-81230247D01*
X186642458Y-81658819D02*
X186071030Y-81658819D01*
X186356744Y-81658819D02*
X186356744Y-80658819D01*
X186356744Y-80658819D02*
X186261506Y-80801676D01*
X186261506Y-80801676D02*
X186166268Y-80896914D01*
X186166268Y-80896914D02*
X186071030Y-80944533D01*
X187594839Y-81658819D02*
X187023411Y-81658819D01*
X187309125Y-81658819D02*
X187309125Y-80658819D01*
X187309125Y-80658819D02*
X187213887Y-80801676D01*
X187213887Y-80801676D02*
X187118649Y-80896914D01*
X187118649Y-80896914D02*
X187023411Y-80944533D01*
X189665350Y-77517819D02*
X189665350Y-76994009D01*
X189665350Y-76994009D02*
X189617731Y-76898771D01*
X189617731Y-76898771D02*
X189522493Y-76851152D01*
X189522493Y-76851152D02*
X189332017Y-76851152D01*
X189332017Y-76851152D02*
X189236779Y-76898771D01*
X189665350Y-77470200D02*
X189570112Y-77517819D01*
X189570112Y-77517819D02*
X189332017Y-77517819D01*
X189332017Y-77517819D02*
X189236779Y-77470200D01*
X189236779Y-77470200D02*
X189189160Y-77374961D01*
X189189160Y-77374961D02*
X189189160Y-77279723D01*
X189189160Y-77279723D02*
X189236779Y-77184485D01*
X189236779Y-77184485D02*
X189332017Y-77136866D01*
X189332017Y-77136866D02*
X189570112Y-77136866D01*
X189570112Y-77136866D02*
X189665350Y-77089247D01*
X190570112Y-77517819D02*
X190570112Y-76517819D01*
X190570112Y-77470200D02*
X190474874Y-77517819D01*
X190474874Y-77517819D02*
X190284398Y-77517819D01*
X190284398Y-77517819D02*
X190189160Y-77470200D01*
X190189160Y-77470200D02*
X190141541Y-77422580D01*
X190141541Y-77422580D02*
X190093922Y-77327342D01*
X190093922Y-77327342D02*
X190093922Y-77041628D01*
X190093922Y-77041628D02*
X190141541Y-76946390D01*
X190141541Y-76946390D02*
X190189160Y-76898771D01*
X190189160Y-76898771D02*
X190284398Y-76851152D01*
X190284398Y-76851152D02*
X190474874Y-76851152D01*
X190474874Y-76851152D02*
X190570112Y-76898771D01*
X190998684Y-76613057D02*
X191046303Y-76565438D01*
X191046303Y-76565438D02*
X191141541Y-76517819D01*
X191141541Y-76517819D02*
X191379636Y-76517819D01*
X191379636Y-76517819D02*
X191474874Y-76565438D01*
X191474874Y-76565438D02*
X191522493Y-76613057D01*
X191522493Y-76613057D02*
X191570112Y-76708295D01*
X191570112Y-76708295D02*
X191570112Y-76803533D01*
X191570112Y-76803533D02*
X191522493Y-76946390D01*
X191522493Y-76946390D02*
X190951065Y-77517819D01*
X190951065Y-77517819D02*
X191570112Y-77517819D01*
X185642458Y-91818819D02*
X185642458Y-91295009D01*
X185642458Y-91295009D02*
X185594839Y-91199771D01*
X185594839Y-91199771D02*
X185499601Y-91152152D01*
X185499601Y-91152152D02*
X185309125Y-91152152D01*
X185309125Y-91152152D02*
X185213887Y-91199771D01*
X185642458Y-91771200D02*
X185547220Y-91818819D01*
X185547220Y-91818819D02*
X185309125Y-91818819D01*
X185309125Y-91818819D02*
X185213887Y-91771200D01*
X185213887Y-91771200D02*
X185166268Y-91675961D01*
X185166268Y-91675961D02*
X185166268Y-91580723D01*
X185166268Y-91580723D02*
X185213887Y-91485485D01*
X185213887Y-91485485D02*
X185309125Y-91437866D01*
X185309125Y-91437866D02*
X185547220Y-91437866D01*
X185547220Y-91437866D02*
X185642458Y-91390247D01*
X186642458Y-91818819D02*
X186071030Y-91818819D01*
X186356744Y-91818819D02*
X186356744Y-90818819D01*
X186356744Y-90818819D02*
X186261506Y-90961676D01*
X186261506Y-90961676D02*
X186166268Y-91056914D01*
X186166268Y-91056914D02*
X186071030Y-91104533D01*
X187547220Y-90818819D02*
X187071030Y-90818819D01*
X187071030Y-90818819D02*
X187023411Y-91295009D01*
X187023411Y-91295009D02*
X187071030Y-91247390D01*
X187071030Y-91247390D02*
X187166268Y-91199771D01*
X187166268Y-91199771D02*
X187404363Y-91199771D01*
X187404363Y-91199771D02*
X187499601Y-91247390D01*
X187499601Y-91247390D02*
X187547220Y-91295009D01*
X187547220Y-91295009D02*
X187594839Y-91390247D01*
X187594839Y-91390247D02*
X187594839Y-91628342D01*
X187594839Y-91628342D02*
X187547220Y-91723580D01*
X187547220Y-91723580D02*
X187499601Y-91771200D01*
X187499601Y-91771200D02*
X187404363Y-91818819D01*
X187404363Y-91818819D02*
X187166268Y-91818819D01*
X187166268Y-91818819D02*
X187071030Y-91771200D01*
X187071030Y-91771200D02*
X187023411Y-91723580D01*
X185642458Y-86738819D02*
X185642458Y-86215009D01*
X185642458Y-86215009D02*
X185594839Y-86119771D01*
X185594839Y-86119771D02*
X185499601Y-86072152D01*
X185499601Y-86072152D02*
X185309125Y-86072152D01*
X185309125Y-86072152D02*
X185213887Y-86119771D01*
X185642458Y-86691200D02*
X185547220Y-86738819D01*
X185547220Y-86738819D02*
X185309125Y-86738819D01*
X185309125Y-86738819D02*
X185213887Y-86691200D01*
X185213887Y-86691200D02*
X185166268Y-86595961D01*
X185166268Y-86595961D02*
X185166268Y-86500723D01*
X185166268Y-86500723D02*
X185213887Y-86405485D01*
X185213887Y-86405485D02*
X185309125Y-86357866D01*
X185309125Y-86357866D02*
X185547220Y-86357866D01*
X185547220Y-86357866D02*
X185642458Y-86310247D01*
X186642458Y-86738819D02*
X186071030Y-86738819D01*
X186356744Y-86738819D02*
X186356744Y-85738819D01*
X186356744Y-85738819D02*
X186261506Y-85881676D01*
X186261506Y-85881676D02*
X186166268Y-85976914D01*
X186166268Y-85976914D02*
X186071030Y-86024533D01*
X186975792Y-85738819D02*
X187594839Y-85738819D01*
X187594839Y-85738819D02*
X187261506Y-86119771D01*
X187261506Y-86119771D02*
X187404363Y-86119771D01*
X187404363Y-86119771D02*
X187499601Y-86167390D01*
X187499601Y-86167390D02*
X187547220Y-86215009D01*
X187547220Y-86215009D02*
X187594839Y-86310247D01*
X187594839Y-86310247D02*
X187594839Y-86548342D01*
X187594839Y-86548342D02*
X187547220Y-86643580D01*
X187547220Y-86643580D02*
X187499601Y-86691200D01*
X187499601Y-86691200D02*
X187404363Y-86738819D01*
X187404363Y-86738819D02*
X187118649Y-86738819D01*
X187118649Y-86738819D02*
X187023411Y-86691200D01*
X187023411Y-86691200D02*
X186975792Y-86643580D01*
X189665350Y-85137819D02*
X189665350Y-84614009D01*
X189665350Y-84614009D02*
X189617731Y-84518771D01*
X189617731Y-84518771D02*
X189522493Y-84471152D01*
X189522493Y-84471152D02*
X189332017Y-84471152D01*
X189332017Y-84471152D02*
X189236779Y-84518771D01*
X189665350Y-85090200D02*
X189570112Y-85137819D01*
X189570112Y-85137819D02*
X189332017Y-85137819D01*
X189332017Y-85137819D02*
X189236779Y-85090200D01*
X189236779Y-85090200D02*
X189189160Y-84994961D01*
X189189160Y-84994961D02*
X189189160Y-84899723D01*
X189189160Y-84899723D02*
X189236779Y-84804485D01*
X189236779Y-84804485D02*
X189332017Y-84756866D01*
X189332017Y-84756866D02*
X189570112Y-84756866D01*
X189570112Y-84756866D02*
X189665350Y-84709247D01*
X190570112Y-85137819D02*
X190570112Y-84137819D01*
X190570112Y-85090200D02*
X190474874Y-85137819D01*
X190474874Y-85137819D02*
X190284398Y-85137819D01*
X190284398Y-85137819D02*
X190189160Y-85090200D01*
X190189160Y-85090200D02*
X190141541Y-85042580D01*
X190141541Y-85042580D02*
X190093922Y-84947342D01*
X190093922Y-84947342D02*
X190093922Y-84661628D01*
X190093922Y-84661628D02*
X190141541Y-84566390D01*
X190141541Y-84566390D02*
X190189160Y-84518771D01*
X190189160Y-84518771D02*
X190284398Y-84471152D01*
X190284398Y-84471152D02*
X190474874Y-84471152D01*
X190474874Y-84471152D02*
X190570112Y-84518771D01*
X191522493Y-84137819D02*
X191046303Y-84137819D01*
X191046303Y-84137819D02*
X190998684Y-84614009D01*
X190998684Y-84614009D02*
X191046303Y-84566390D01*
X191046303Y-84566390D02*
X191141541Y-84518771D01*
X191141541Y-84518771D02*
X191379636Y-84518771D01*
X191379636Y-84518771D02*
X191474874Y-84566390D01*
X191474874Y-84566390D02*
X191522493Y-84614009D01*
X191522493Y-84614009D02*
X191570112Y-84709247D01*
X191570112Y-84709247D02*
X191570112Y-84947342D01*
X191570112Y-84947342D02*
X191522493Y-85042580D01*
X191522493Y-85042580D02*
X191474874Y-85090200D01*
X191474874Y-85090200D02*
X191379636Y-85137819D01*
X191379636Y-85137819D02*
X191141541Y-85137819D01*
X191141541Y-85137819D02*
X191046303Y-85090200D01*
X191046303Y-85090200D02*
X190998684Y-85042580D01*
X118142833Y-93403580D02*
X118095214Y-93451200D01*
X118095214Y-93451200D02*
X117952357Y-93498819D01*
X117952357Y-93498819D02*
X117857119Y-93498819D01*
X117857119Y-93498819D02*
X117714262Y-93451200D01*
X117714262Y-93451200D02*
X117619024Y-93355961D01*
X117619024Y-93355961D02*
X117571405Y-93260723D01*
X117571405Y-93260723D02*
X117523786Y-93070247D01*
X117523786Y-93070247D02*
X117523786Y-92927390D01*
X117523786Y-92927390D02*
X117571405Y-92736914D01*
X117571405Y-92736914D02*
X117619024Y-92641676D01*
X117619024Y-92641676D02*
X117714262Y-92546438D01*
X117714262Y-92546438D02*
X117857119Y-92498819D01*
X117857119Y-92498819D02*
X117952357Y-92498819D01*
X117952357Y-92498819D02*
X118095214Y-92546438D01*
X118095214Y-92546438D02*
X118142833Y-92594057D01*
X118523786Y-92594057D02*
X118571405Y-92546438D01*
X118571405Y-92546438D02*
X118666643Y-92498819D01*
X118666643Y-92498819D02*
X118904738Y-92498819D01*
X118904738Y-92498819D02*
X118999976Y-92546438D01*
X118999976Y-92546438D02*
X119047595Y-92594057D01*
X119047595Y-92594057D02*
X119095214Y-92689295D01*
X119095214Y-92689295D02*
X119095214Y-92784533D01*
X119095214Y-92784533D02*
X119047595Y-92927390D01*
X119047595Y-92927390D02*
X118476167Y-93498819D01*
X118476167Y-93498819D02*
X119095214Y-93498819D01*
X124195833Y-90043580D02*
X124148214Y-90091200D01*
X124148214Y-90091200D02*
X124005357Y-90138819D01*
X124005357Y-90138819D02*
X123910119Y-90138819D01*
X123910119Y-90138819D02*
X123767262Y-90091200D01*
X123767262Y-90091200D02*
X123672024Y-89995961D01*
X123672024Y-89995961D02*
X123624405Y-89900723D01*
X123624405Y-89900723D02*
X123576786Y-89710247D01*
X123576786Y-89710247D02*
X123576786Y-89567390D01*
X123576786Y-89567390D02*
X123624405Y-89376914D01*
X123624405Y-89376914D02*
X123672024Y-89281676D01*
X123672024Y-89281676D02*
X123767262Y-89186438D01*
X123767262Y-89186438D02*
X123910119Y-89138819D01*
X123910119Y-89138819D02*
X124005357Y-89138819D01*
X124005357Y-89138819D02*
X124148214Y-89186438D01*
X124148214Y-89186438D02*
X124195833Y-89234057D01*
X125148214Y-90138819D02*
X124576786Y-90138819D01*
X124862500Y-90138819D02*
X124862500Y-89138819D01*
X124862500Y-89138819D02*
X124767262Y-89281676D01*
X124767262Y-89281676D02*
X124672024Y-89376914D01*
X124672024Y-89376914D02*
X124576786Y-89424533D01*
X126554909Y-65219703D02*
X127127329Y-65792123D01*
X127127329Y-65792123D02*
X127228344Y-65825795D01*
X127228344Y-65825795D02*
X127295688Y-65825795D01*
X127295688Y-65825795D02*
X127396703Y-65792123D01*
X127396703Y-65792123D02*
X127531390Y-65657436D01*
X127531390Y-65657436D02*
X127565062Y-65556421D01*
X127565062Y-65556421D02*
X127565062Y-65489077D01*
X127565062Y-65489077D02*
X127531390Y-65388062D01*
X127531390Y-65388062D02*
X126958970Y-64815642D01*
X128373184Y-64815642D02*
X127969123Y-65219703D01*
X128171153Y-65017673D02*
X127464047Y-64310566D01*
X127464047Y-64310566D02*
X127497718Y-64478925D01*
X127497718Y-64478925D02*
X127497718Y-64613612D01*
X127497718Y-64613612D02*
X127464047Y-64714627D01*
X135669851Y-83021958D02*
X136141256Y-83493362D01*
X135366806Y-83325004D02*
X135737195Y-83695393D01*
X135737195Y-83695393D02*
X135838210Y-83729065D01*
X135838210Y-83729065D02*
X135939225Y-83695393D01*
X135939225Y-83695393D02*
X136040241Y-83594378D01*
X136040241Y-83594378D02*
X136073912Y-83493362D01*
X136073912Y-83493362D02*
X136073912Y-83426019D01*
X136006569Y-82685240D02*
X136713676Y-83392347D01*
X136040241Y-82718912D02*
X136073912Y-82617897D01*
X136073912Y-82617897D02*
X136208599Y-82483210D01*
X136208599Y-82483210D02*
X136309615Y-82449538D01*
X136309615Y-82449538D02*
X136376958Y-82449538D01*
X136376958Y-82449538D02*
X136477973Y-82483210D01*
X136477973Y-82483210D02*
X136680004Y-82685240D01*
X136680004Y-82685240D02*
X136713676Y-82786256D01*
X136713676Y-82786256D02*
X136713676Y-82853599D01*
X136713676Y-82853599D02*
X136680004Y-82954614D01*
X136680004Y-82954614D02*
X136545317Y-83089301D01*
X136545317Y-83089301D02*
X136444302Y-83122973D01*
X137420783Y-82213836D02*
X136713676Y-81506729D01*
X137387111Y-82180164D02*
X137353439Y-82281179D01*
X137353439Y-82281179D02*
X137218752Y-82415866D01*
X137218752Y-82415866D02*
X137117737Y-82449538D01*
X137117737Y-82449538D02*
X137050393Y-82449538D01*
X137050393Y-82449538D02*
X136949378Y-82415866D01*
X136949378Y-82415866D02*
X136747348Y-82213836D01*
X136747348Y-82213836D02*
X136713676Y-82112820D01*
X136713676Y-82112820D02*
X136713676Y-82045477D01*
X136713676Y-82045477D02*
X136747348Y-81944462D01*
X136747348Y-81944462D02*
X136882035Y-81809775D01*
X136882035Y-81809775D02*
X136983050Y-81776103D01*
X136983050Y-81237355D02*
X137454454Y-80765950D01*
X137454454Y-80765950D02*
X137858515Y-81776103D01*
X138127889Y-80698607D02*
X138026874Y-80732279D01*
X138026874Y-80732279D02*
X137959531Y-80732279D01*
X137959531Y-80732279D02*
X137858515Y-80698607D01*
X137858515Y-80698607D02*
X137824844Y-80664935D01*
X137824844Y-80664935D02*
X137791172Y-80563920D01*
X137791172Y-80563920D02*
X137791172Y-80496576D01*
X137791172Y-80496576D02*
X137824844Y-80395561D01*
X137824844Y-80395561D02*
X137959531Y-80260874D01*
X137959531Y-80260874D02*
X138060546Y-80227202D01*
X138060546Y-80227202D02*
X138127889Y-80227202D01*
X138127889Y-80227202D02*
X138228905Y-80260874D01*
X138228905Y-80260874D02*
X138262576Y-80294546D01*
X138262576Y-80294546D02*
X138296248Y-80395561D01*
X138296248Y-80395561D02*
X138296248Y-80462905D01*
X138296248Y-80462905D02*
X138262576Y-80563920D01*
X138262576Y-80563920D02*
X138127889Y-80698607D01*
X138127889Y-80698607D02*
X138094218Y-80799622D01*
X138094218Y-80799622D02*
X138094218Y-80866966D01*
X138094218Y-80866966D02*
X138127889Y-80967981D01*
X138127889Y-80967981D02*
X138262576Y-81102668D01*
X138262576Y-81102668D02*
X138363592Y-81136340D01*
X138363592Y-81136340D02*
X138430935Y-81136340D01*
X138430935Y-81136340D02*
X138531950Y-81102668D01*
X138531950Y-81102668D02*
X138666637Y-80967981D01*
X138666637Y-80967981D02*
X138700309Y-80866966D01*
X138700309Y-80866966D02*
X138700309Y-80799622D01*
X138700309Y-80799622D02*
X138666637Y-80698607D01*
X138666637Y-80698607D02*
X138531950Y-80563920D01*
X138531950Y-80563920D02*
X138430935Y-80530248D01*
X138430935Y-80530248D02*
X138363592Y-80530248D01*
X138363592Y-80530248D02*
X138262576Y-80563920D01*
X138430935Y-79924156D02*
X138430935Y-79856813D01*
X138430935Y-79856813D02*
X138464607Y-79755798D01*
X138464607Y-79755798D02*
X138632966Y-79587439D01*
X138632966Y-79587439D02*
X138733981Y-79553767D01*
X138733981Y-79553767D02*
X138801325Y-79553767D01*
X138801325Y-79553767D02*
X138902340Y-79587439D01*
X138902340Y-79587439D02*
X138969683Y-79654782D01*
X138969683Y-79654782D02*
X139037027Y-79789469D01*
X139037027Y-79789469D02*
X139037027Y-80597592D01*
X139037027Y-80597592D02*
X139474760Y-80159859D01*
X140148195Y-79486424D02*
X139744134Y-79890485D01*
X139946164Y-79688454D02*
X139239057Y-78981347D01*
X139239057Y-78981347D02*
X139272729Y-79149706D01*
X139272729Y-79149706D02*
X139272729Y-79284393D01*
X139272729Y-79284393D02*
X139239057Y-79385408D01*
X140282882Y-78408928D02*
X140754286Y-78880332D01*
X139845149Y-78307912D02*
X140181866Y-78981347D01*
X140181866Y-78981347D02*
X140619599Y-78543615D01*
X140855301Y-78240569D02*
X141394049Y-77701821D01*
X141596080Y-76624325D02*
X141461393Y-76759012D01*
X141461393Y-76759012D02*
X141427721Y-76860027D01*
X141427721Y-76860027D02*
X141427721Y-76927371D01*
X141427721Y-76927371D02*
X141461393Y-77095729D01*
X141461393Y-77095729D02*
X141562408Y-77264088D01*
X141562408Y-77264088D02*
X141831782Y-77533462D01*
X141831782Y-77533462D02*
X141932797Y-77567134D01*
X141932797Y-77567134D02*
X142000141Y-77567134D01*
X142000141Y-77567134D02*
X142101156Y-77533462D01*
X142101156Y-77533462D02*
X142235843Y-77398775D01*
X142235843Y-77398775D02*
X142269515Y-77297760D01*
X142269515Y-77297760D02*
X142269515Y-77230416D01*
X142269515Y-77230416D02*
X142235843Y-77129401D01*
X142235843Y-77129401D02*
X142067484Y-76961042D01*
X142067484Y-76961042D02*
X141966469Y-76927371D01*
X141966469Y-76927371D02*
X141899126Y-76927371D01*
X141899126Y-76927371D02*
X141798110Y-76961042D01*
X141798110Y-76961042D02*
X141663423Y-77095729D01*
X141663423Y-77095729D02*
X141629752Y-77196745D01*
X141629752Y-77196745D02*
X141629752Y-77264088D01*
X141629752Y-77264088D02*
X141663423Y-77365103D01*
X142505217Y-76186592D02*
X142976622Y-76657997D01*
X142067484Y-76085577D02*
X142404202Y-76759012D01*
X142404202Y-76759012D02*
X142841935Y-76321279D01*
X142875606Y-75816203D02*
X143582713Y-76523310D01*
X142909278Y-75849875D02*
X142942950Y-75748859D01*
X142942950Y-75748859D02*
X143077637Y-75614172D01*
X143077637Y-75614172D02*
X143178652Y-75580501D01*
X143178652Y-75580501D02*
X143245996Y-75580501D01*
X143245996Y-75580501D02*
X143347011Y-75614172D01*
X143347011Y-75614172D02*
X143549041Y-75816203D01*
X143549041Y-75816203D02*
X143582713Y-75917218D01*
X143582713Y-75917218D02*
X143582713Y-75984562D01*
X143582713Y-75984562D02*
X143549041Y-76085577D01*
X143549041Y-76085577D02*
X143414354Y-76220264D01*
X143414354Y-76220264D02*
X143313339Y-76253936D01*
X143717400Y-75378470D02*
X144256148Y-74839722D01*
X144693881Y-73997928D02*
X145400988Y-74705035D01*
X145131614Y-74435661D02*
X145097942Y-74536676D01*
X145097942Y-74536676D02*
X144963255Y-74671363D01*
X144963255Y-74671363D02*
X144862240Y-74705035D01*
X144862240Y-74705035D02*
X144794896Y-74705035D01*
X144794896Y-74705035D02*
X144693881Y-74671363D01*
X144693881Y-74671363D02*
X144491850Y-74469333D01*
X144491850Y-74469333D02*
X144458179Y-74368318D01*
X144458179Y-74368318D02*
X144458179Y-74300974D01*
X144458179Y-74300974D02*
X144491850Y-74199959D01*
X144491850Y-74199959D02*
X144626537Y-74065272D01*
X144626537Y-74065272D02*
X144727553Y-74031600D01*
X144929583Y-73762226D02*
X145198957Y-73492852D01*
X145502003Y-74132615D02*
X144895911Y-73526524D01*
X144895911Y-73526524D02*
X144862240Y-73425508D01*
X144862240Y-73425508D02*
X144895911Y-73324493D01*
X144895911Y-73324493D02*
X144963255Y-73257150D01*
X145434660Y-73257149D02*
X146141767Y-73964256D01*
X145468332Y-73290821D02*
X145502003Y-73189806D01*
X145502003Y-73189806D02*
X145636690Y-73055119D01*
X145636690Y-73055119D02*
X145737706Y-73021447D01*
X145737706Y-73021447D02*
X145805049Y-73021447D01*
X145805049Y-73021447D02*
X145906064Y-73055119D01*
X145906064Y-73055119D02*
X146108095Y-73257149D01*
X146108095Y-73257149D02*
X146141767Y-73358165D01*
X146141767Y-73358165D02*
X146141767Y-73425508D01*
X146141767Y-73425508D02*
X146108095Y-73526523D01*
X146108095Y-73526523D02*
X145973408Y-73661210D01*
X145973408Y-73661210D02*
X145872393Y-73694882D01*
X162214819Y-53731333D02*
X162929104Y-53731333D01*
X162929104Y-53731333D02*
X163071961Y-53778952D01*
X163071961Y-53778952D02*
X163167200Y-53874190D01*
X163167200Y-53874190D02*
X163214819Y-54017047D01*
X163214819Y-54017047D02*
X163214819Y-54112285D01*
X163214819Y-53255142D02*
X162214819Y-53255142D01*
X162214819Y-53255142D02*
X162214819Y-52874190D01*
X162214819Y-52874190D02*
X162262438Y-52778952D01*
X162262438Y-52778952D02*
X162310057Y-52731333D01*
X162310057Y-52731333D02*
X162405295Y-52683714D01*
X162405295Y-52683714D02*
X162548152Y-52683714D01*
X162548152Y-52683714D02*
X162643390Y-52731333D01*
X162643390Y-52731333D02*
X162691009Y-52778952D01*
X162691009Y-52778952D02*
X162738628Y-52874190D01*
X162738628Y-52874190D02*
X162738628Y-53255142D01*
X162310057Y-52302761D02*
X162262438Y-52255142D01*
X162262438Y-52255142D02*
X162214819Y-52159904D01*
X162214819Y-52159904D02*
X162214819Y-51921809D01*
X162214819Y-51921809D02*
X162262438Y-51826571D01*
X162262438Y-51826571D02*
X162310057Y-51778952D01*
X162310057Y-51778952D02*
X162405295Y-51731333D01*
X162405295Y-51731333D02*
X162500533Y-51731333D01*
X162500533Y-51731333D02*
X162643390Y-51778952D01*
X162643390Y-51778952D02*
X163214819Y-52350380D01*
X163214819Y-52350380D02*
X163214819Y-51731333D01*
X120859809Y-89782628D02*
X120859809Y-90258819D01*
X120526476Y-89258819D02*
X120859809Y-89782628D01*
X120859809Y-89782628D02*
X121193142Y-89258819D01*
X122050285Y-90258819D02*
X121478857Y-90258819D01*
X121764571Y-90258819D02*
X121764571Y-89258819D01*
X121764571Y-89258819D02*
X121669333Y-89401676D01*
X121669333Y-89401676D02*
X121574095Y-89496914D01*
X121574095Y-89496914D02*
X121478857Y-89544533D01*
X164754819Y-53731333D02*
X165469104Y-53731333D01*
X165469104Y-53731333D02*
X165611961Y-53778952D01*
X165611961Y-53778952D02*
X165707200Y-53874190D01*
X165707200Y-53874190D02*
X165754819Y-54017047D01*
X165754819Y-54017047D02*
X165754819Y-54112285D01*
X165754819Y-53255142D02*
X164754819Y-53255142D01*
X164754819Y-53255142D02*
X164754819Y-52874190D01*
X164754819Y-52874190D02*
X164802438Y-52778952D01*
X164802438Y-52778952D02*
X164850057Y-52731333D01*
X164850057Y-52731333D02*
X164945295Y-52683714D01*
X164945295Y-52683714D02*
X165088152Y-52683714D01*
X165088152Y-52683714D02*
X165183390Y-52731333D01*
X165183390Y-52731333D02*
X165231009Y-52778952D01*
X165231009Y-52778952D02*
X165278628Y-52874190D01*
X165278628Y-52874190D02*
X165278628Y-53255142D01*
X165754819Y-51731333D02*
X165754819Y-52302761D01*
X165754819Y-52017047D02*
X164754819Y-52017047D01*
X164754819Y-52017047D02*
X164897676Y-52112285D01*
X164897676Y-52112285D02*
X164992914Y-52207523D01*
X164992914Y-52207523D02*
X165040533Y-52302761D01*
%TO.C,J7*%
D11*
X192650000Y-91110000D02*
X192650000Y-47870000D01*
X192650000Y-93710000D02*
X192650000Y-92380000D01*
X193980000Y-93710000D02*
X192650000Y-93710000D01*
X195250000Y-91110000D02*
X192650000Y-91110000D01*
X195250000Y-93710000D02*
X195250000Y-91110000D01*
X197850000Y-47870000D02*
X192650000Y-47870000D01*
X197850000Y-93710000D02*
X195250000Y-93710000D01*
X197850000Y-93710000D02*
X197850000Y-47870000D01*
%TO.C,J1*%
X126610000Y-96130000D02*
X127940000Y-96130000D01*
X126610000Y-97460000D02*
X126610000Y-96130000D01*
X129210000Y-96130000D02*
X147050000Y-96130000D01*
X129210000Y-98790000D02*
X129210000Y-96130000D01*
X129210000Y-98790000D02*
X147050000Y-98790000D01*
X147050000Y-98790000D02*
X147050000Y-96130000D01*
%TO.C,J3*%
X149470000Y-96130000D02*
X150800000Y-96130000D01*
X149470000Y-97460000D02*
X149470000Y-96130000D01*
X152070000Y-96130000D02*
X169910000Y-96130000D01*
X152070000Y-98790000D02*
X152070000Y-96130000D01*
X152070000Y-98790000D02*
X169910000Y-98790000D01*
X169910000Y-98790000D02*
X169910000Y-96130000D01*
%TO.C,J5*%
X172330000Y-96130000D02*
X173660000Y-96130000D01*
X172330000Y-97460000D02*
X172330000Y-96130000D01*
X174930000Y-96130000D02*
X192770000Y-96130000D01*
X174930000Y-98790000D02*
X174930000Y-96130000D01*
X174930000Y-98790000D02*
X192770000Y-98790000D01*
X192770000Y-98790000D02*
X192770000Y-96130000D01*
%TO.C,J2*%
X117466000Y-47870000D02*
X118796000Y-47870000D01*
X117466000Y-49200000D02*
X117466000Y-47870000D01*
X120066000Y-47870000D02*
X142986000Y-47870000D01*
X120066000Y-50530000D02*
X120066000Y-47870000D01*
X120066000Y-50530000D02*
X142986000Y-50530000D01*
X142986000Y-50530000D02*
X142986000Y-47870000D01*
%TO.C,J4*%
X144390000Y-47870000D02*
X145720000Y-47870000D01*
X144390000Y-49200000D02*
X144390000Y-47870000D01*
X146990000Y-47870000D02*
X164830000Y-47870000D01*
X146990000Y-50530000D02*
X146990000Y-47870000D01*
X146990000Y-50530000D02*
X164830000Y-50530000D01*
X164830000Y-50530000D02*
X164830000Y-47870000D01*
%TO.C,J6*%
X167250000Y-47870000D02*
X168580000Y-47870000D01*
X167250000Y-49200000D02*
X167250000Y-47870000D01*
X169850000Y-47870000D02*
X187690000Y-47870000D01*
X169850000Y-50530000D02*
X169850000Y-47870000D01*
X169850000Y-50530000D02*
X187690000Y-50530000D01*
X187690000Y-50530000D02*
X187690000Y-47870000D01*
%TO.C,C2*%
X118570752Y-90629000D02*
X118048248Y-90629000D01*
X118570752Y-92099000D02*
X118048248Y-92099000D01*
%TO.C,C1*%
X124101248Y-90629000D02*
X124623752Y-90629000D01*
X124101248Y-92099000D02*
X124623752Y-92099000D01*
%TO.C,U1*%
X124035549Y-71677905D02*
X124442135Y-72084491D01*
X124442135Y-71271319D02*
X124035549Y-71677905D01*
X133684021Y-62029433D02*
X134090607Y-61622847D01*
X134090607Y-61622847D02*
X134497193Y-62029433D01*
X134090607Y-81732963D02*
X133684021Y-81326377D01*
X134497193Y-81326377D02*
X134090607Y-81732963D01*
X143739079Y-72084491D02*
X144145665Y-71677905D01*
X144145665Y-71677905D02*
X143739079Y-71271319D01*
X124024942Y-72501684D02*
X123452185Y-72409761D01*
X123933018Y-71928928D01*
X124024942Y-72501684D01*
G36*
X124024942Y-72501684D02*
G01*
X123452185Y-72409761D01*
X123933018Y-71928928D01*
X124024942Y-72501684D01*
G37*
%TO.C,JP2*%
X159960000Y-53598000D02*
X159960000Y-52198000D01*
X160660000Y-51498000D02*
X161260000Y-51498000D01*
X161260000Y-54298000D02*
X160660000Y-54298000D01*
X161960000Y-52198000D02*
X161960000Y-53598000D01*
X159960000Y-52198000D02*
G75*
G02*
X160660000Y-51498000I699999J1D01*
G01*
X160660000Y-54298000D02*
G75*
G02*
X159960000Y-53598000I0J700000D01*
G01*
X161260000Y-51498000D02*
G75*
G02*
X161960000Y-52198000I1J-699999D01*
G01*
X161960000Y-53598000D02*
G75*
G02*
X161260000Y-54298000I-700000J0D01*
G01*
%TO.C,Y1*%
X118211000Y-83849000D02*
X124461000Y-83849000D01*
X124461000Y-88719000D02*
X118211000Y-88719000D01*
X118211000Y-88719000D02*
G75*
G02*
X118211000Y-83849000I0J2435000D01*
G01*
X124461000Y-83849000D02*
G75*
G02*
X124461000Y-88719000I0J-2435000D01*
G01*
%TO.C,JP1*%
X162500000Y-53598000D02*
X162500000Y-52198000D01*
X163200000Y-51498000D02*
X163800000Y-51498000D01*
X163800000Y-54298000D02*
X163200000Y-54298000D01*
X164500000Y-52198000D02*
X164500000Y-53598000D01*
X162500000Y-52198000D02*
G75*
G02*
X163200000Y-51498000I699999J1D01*
G01*
X163200000Y-54298000D02*
G75*
G02*
X162500000Y-53598000I0J700000D01*
G01*
X163800000Y-51498000D02*
G75*
G02*
X164500000Y-52198000I1J-699999D01*
G01*
X164500000Y-53598000D02*
G75*
G02*
X163800000Y-54298000I-700000J0D01*
G01*
%TD*%
%LPC*%
%TO.C,JP2*%
G36*
X160210000Y-52748000D02*
G01*
X161710000Y-52748000D01*
X161710000Y-53048000D01*
X160210000Y-53048000D01*
X160210000Y-52748000D01*
G37*
%TO.C,JP1*%
G36*
X162750000Y-52748000D02*
G01*
X164250000Y-52748000D01*
X164250000Y-53048000D01*
X162750000Y-53048000D01*
X162750000Y-52748000D01*
G37*
%TD*%
D12*
%TO.C,J7*%
X193980000Y-92380000D03*
D13*
X196520000Y-92380000D03*
X193980000Y-89840000D03*
X196520000Y-89840000D03*
X193980000Y-87300000D03*
X196520000Y-87300000D03*
X193980000Y-84760000D03*
X196520000Y-84760000D03*
X193980000Y-82220000D03*
X196520000Y-82220000D03*
X193980000Y-79680000D03*
X196520000Y-79680000D03*
X193980000Y-77140000D03*
X196520000Y-77140000D03*
X193980000Y-74600000D03*
X196520000Y-74600000D03*
X193980000Y-72060000D03*
X196520000Y-72060000D03*
X193980000Y-69520000D03*
X196520000Y-69520000D03*
X193980000Y-66980000D03*
X196520000Y-66980000D03*
X193980000Y-64440000D03*
X196520000Y-64440000D03*
X193980000Y-61900000D03*
X196520000Y-61900000D03*
X193980000Y-59360000D03*
X196520000Y-59360000D03*
X193980000Y-56820000D03*
X196520000Y-56820000D03*
X193980000Y-54280000D03*
X196520000Y-54280000D03*
X193980000Y-51740000D03*
X196520000Y-51740000D03*
X193980000Y-49200000D03*
X196520000Y-49200000D03*
%TD*%
D12*
%TO.C,J1*%
X127940000Y-97460000D03*
D13*
X130480000Y-97460000D03*
X133020000Y-97460000D03*
X135560000Y-97460000D03*
X138100000Y-97460000D03*
X140640000Y-97460000D03*
X143180000Y-97460000D03*
X145720000Y-97460000D03*
%TD*%
D12*
%TO.C,J3*%
X150800000Y-97460000D03*
D13*
X153340000Y-97460000D03*
X155880000Y-97460000D03*
X158420000Y-97460000D03*
X160960000Y-97460000D03*
X163500000Y-97460000D03*
X166040000Y-97460000D03*
X168580000Y-97460000D03*
%TD*%
D12*
%TO.C,J5*%
X173660000Y-97460000D03*
D13*
X176200000Y-97460000D03*
X178740000Y-97460000D03*
X181280000Y-97460000D03*
X183820000Y-97460000D03*
X186360000Y-97460000D03*
X188900000Y-97460000D03*
X191440000Y-97460000D03*
%TD*%
D12*
%TO.C,J2*%
X118796000Y-49200000D03*
D13*
X121336000Y-49200000D03*
X123876000Y-49200000D03*
X126416000Y-49200000D03*
X128956000Y-49200000D03*
X131496000Y-49200000D03*
X134036000Y-49200000D03*
X136576000Y-49200000D03*
X139116000Y-49200000D03*
X141656000Y-49200000D03*
%TD*%
D12*
%TO.C,J4*%
X145720000Y-49200000D03*
D13*
X148260000Y-49200000D03*
X150800000Y-49200000D03*
X153340000Y-49200000D03*
X155880000Y-49200000D03*
X158420000Y-49200000D03*
X160960000Y-49200000D03*
X163500000Y-49200000D03*
%TD*%
D12*
%TO.C,J6*%
X168580000Y-49200000D03*
D13*
X171120000Y-49200000D03*
X173660000Y-49200000D03*
X176200000Y-49200000D03*
X178740000Y-49200000D03*
X181280000Y-49200000D03*
X183820000Y-49200000D03*
X186360000Y-49200000D03*
%TD*%
D14*
%TO.C,C2*%
X119347000Y-91364000D03*
X117272000Y-91364000D03*
%TD*%
D15*
%TO.C,C1*%
X123325000Y-91364000D03*
X125400000Y-91364000D03*
%TD*%
D16*
%TO.C,MH6*%
X196520000Y-97460000D03*
%TD*%
%TO.C,MH1*%
X115240000Y-49200000D03*
%TD*%
D17*
%TO.C,U1*%
X124429761Y-72853470D03*
X124995446Y-73419155D03*
X125561131Y-73984841D03*
X126126817Y-74550526D03*
X126692502Y-75116212D03*
X127258188Y-75681897D03*
X127823873Y-76247583D03*
X128389559Y-76813268D03*
X128955244Y-77378953D03*
X129520929Y-77944639D03*
X130086615Y-78510324D03*
X130652300Y-79076010D03*
X131217986Y-79641695D03*
X131783671Y-80207381D03*
X132349357Y-80773066D03*
X132915042Y-81338751D03*
D18*
X135266172Y-81338751D03*
X135831857Y-80773066D03*
X136397543Y-80207381D03*
X136963228Y-79641695D03*
X137528914Y-79076010D03*
X138094599Y-78510324D03*
X138660285Y-77944639D03*
X139225970Y-77378953D03*
X139791655Y-76813268D03*
X140357341Y-76247583D03*
X140923026Y-75681897D03*
X141488712Y-75116212D03*
X142054397Y-74550526D03*
X142620083Y-73984841D03*
X143185768Y-73419155D03*
X143751453Y-72853470D03*
D17*
X143751453Y-70502340D03*
X143185768Y-69936655D03*
X142620083Y-69370969D03*
X142054397Y-68805284D03*
X141488712Y-68239598D03*
X140923026Y-67673913D03*
X140357341Y-67108227D03*
X139791655Y-66542542D03*
X139225970Y-65976857D03*
X138660285Y-65411171D03*
X138094599Y-64845486D03*
X137528914Y-64279800D03*
X136963228Y-63714115D03*
X136397543Y-63148429D03*
X135831857Y-62582744D03*
X135266172Y-62017059D03*
D18*
X132915042Y-62017059D03*
X132349357Y-62582744D03*
X131783671Y-63148429D03*
X131217986Y-63714115D03*
X130652300Y-64279800D03*
X130086615Y-64845486D03*
X129520929Y-65411171D03*
X128955244Y-65976857D03*
X128389559Y-66542542D03*
X127823873Y-67108227D03*
X127258188Y-67673913D03*
X126692502Y-68239598D03*
X126126817Y-68805284D03*
X125561131Y-69370969D03*
X124995446Y-69936655D03*
X124429761Y-70502340D03*
%TD*%
D19*
%TO.C,JP2*%
X160960000Y-52248000D03*
D20*
X160960000Y-53548000D03*
%TD*%
D16*
%TO.C,MH2*%
X113970000Y-97460000D03*
%TD*%
%TO.C,MH3*%
X166040000Y-64440000D03*
%TD*%
%TO.C,MH4*%
X166040000Y-92380000D03*
%TD*%
D21*
%TO.C,Y1*%
X123776000Y-86284000D03*
X118896000Y-86284000D03*
%TD*%
D16*
%TO.C,MH5*%
X190170000Y-49200000D03*
%TD*%
D19*
%TO.C,JP1*%
X163500000Y-52248000D03*
D20*
X163500000Y-53548000D03*
%TD*%
%LPD*%
M02*
